<svg width="86mm" height="54.9mm" version="1.1" viewBox="0 0 86 54.9" xmlns="http://www.w3.org/2000/svg">
 <g transform="translate(98.4 79.1)">
  <path d="m-41.3-59.7c-0.359 0.102-0.523 0.103-0.882 0 0-0.248 0.197-0.449 0.441-0.449 0.244 0 0.441 0.201 0.441 0.449z" fill="#7e7d57" stroke-linecap="round" stroke-linejoin="round" stroke-width=".5" style="paint-order:stroke fill markers"/>
  <path d="m-39.4-59.2c-0.525 0.119-0.764 0.121-1.29 0 0-0.291 0.289-0.527 0.645-0.527 0.356 0 0.645 0.236 0.645 0.527z" fill="#7e7d57" stroke-linecap="round" stroke-linejoin="round" stroke-width=".5" style="paint-order:stroke fill markers"/>
  <polygon transform="matrix(1.08 0 0 1.06 -72.2 -43.9)" points="10 0 5 -9 -5 -9 -10 0 -5 9 5 9" fill="#685c56" stroke="#444" stroke-width=".934"/>
  <polygon transform="matrix(1.08 0 0 1.06 -56 -34.2)" points="10 0 5 -9 -5 -9 -10 0 -5 9 5 9" fill="#988968" stroke="#444" stroke-width=".934"/>
  <polygon transform="matrix(1.08 0 0 1.06 -72.3 -59.8)" points="-10 0 -5 9 5 9 10 0 5 -9 -5 -9" fill="#636b3e" stroke="#444" stroke-width=".934"/>
  <polygon transform="matrix(1.08 0 0 1.06 -39.6 -59.6)" points="-5 -9 -10 0 -5 9 5 9 10 0 5 -9" fill="#696955" stroke="#444" stroke-width=".934"/>
  <polygon transform="matrix(1.08 0 0 1.06 -56.1 -69)" points="5 9 10 0 5 -9 -5 -9 -10 0 -5 9" fill="#82c2c2" stroke="#444" stroke-width=".934"/>
  <polygon transform="matrix(1.08 0 0 1.06 -40 -43.8)" points="-5 9 5 9 10 0 5 -9 -5 -9 -10 0" fill="#4d623e" stroke="#444" stroke-width=".934"/>
  <path d="m-42.4-59.9s2e-3 -0.702-0.233-0.746" fill="none" stroke="#939366" stroke-linecap="round" stroke-width=".1"/>
  <path d="m-35.4-58.3c-1.41 0.704-4.16 1.48-5.02 0.16-0.757-1.16-2.9-0.0197-3.17-1.2-0.316-1.42 2.54-1.27 3.8-1.47 1.91-0.3 4.16-0.772 5.86 0.295 1.77 1.11-0.577 1.76-1.47 2.21z" fill="#a8a773"/>
  <path d="m-37-58.3c-0.856 0.209-1.25 0.212-2.1 0 0-0.51 0.47-0.923 1.05-0.923 0.58 0 1.05 0.413 1.05 0.923z" fill="#7e7d57" stroke-linecap="round" stroke-linejoin="round" stroke-width=".5" style="paint-order:stroke fill markers"/>
  <path d="m-36.8-58.1s-4e-3 -1.12 0.582-1.19" fill="none" stroke="#757551" stroke-linecap="round" stroke-width=".1"/>
  <path d="m-39.4-57.9s3e-3 -0.981-0.402-1.04" fill="none" stroke="#757551" stroke-linecap="round" stroke-width=".1"/>
  <ellipse cx="-68.7" cy="-57.1" rx="3.53" ry=".989" fill="#454837" style="paint-order:fill markers stroke"/>
  <path d="m-68.7-57.6c0.205 0.353-0.0897 0.934 0.391 1.12 0.34-0.0696 0.691 2e-3 0.936 0.276 0.261 0.128 0.573 0.336 0.0943 0.34-0.452 0.106-0.889-0.247-1.33-0.0546-0.353 0.256-0.8 0.358-1.24 0.366-0.434-0.0374-0.879-0.0901-1.28-0.28-0.359 0.0247-0.365-0.146-0.0381-0.217 0.281-0.213 0.801-0.265 0.854-0.669-0.0964-0.462-0.0575-0.931 0.0452-1.39 0.814-2.71 0.904-0.847 1.56 0.504z" fill="#383b2d"/>
  <ellipse cx="-76.3" cy="-58.9" rx="2.93" ry=".82" fill="#454837" style="paint-order:fill markers stroke"/>
  <path d="m-76.3-60.2c0.17 0.292-0.0744 0.775 0.324 0.931 0.282-0.0577 0.573 2e-3 0.776 0.229 0.216 0.106 0.475 0.278 0.0782 0.282-0.375 0.0878-0.737-0.205-1.1-0.0453-0.293 0.213-0.663 0.297-1.03 0.303-0.36-0.031-0.729-0.0747-1.06-0.232-0.297 0.0204-0.303-0.121-0.0316-0.18 0.233-0.177 0.664-0.22 0.708-0.554-0.0799-0.383-0.0477-0.772 0.0375-1.15 0.675-2.24 0.749-0.702 1.29 0.418z" fill="#383b2d"/>
  <path d="m-79.1-63.7c-0.367 0.146-0.327 0.578-0.211 0.882 0.0441 0.303-0.138 0.714 0.182 0.924 0.245 0.0437 0.486 0.132 0.665 0.32 0.44-0.82-0.102-1.71-0.636-2.13z" fill="#383b2d"/>
  <path d="m-79.1-63.7c-0.167 0.203 0.0983 0.507 0.184 0.682 0.112 0.227 0.412 0.117 0.4 0.326 1.46 1.84 2.82 0.63 0.846-1.34-0.19-0.184-0.456-0.0751-0.666 3.8e-4 -0.361 0.118-0.536 0.0571-0.764 0.334z" fill="#8a916f"/>
  <path d="m-79.4-62.5c-0.429 0.175-0.266 0.691-0.205 1.03-7e-3 0.764 0.561 1.11 1.19 1.3 0.375 0.0477 0.76-0.117 1.1-0.26 0.255-0.057 0.209-0.331-0.043-0.237-1.04-0.888-1.15-0.598-2.04-1.84z" fill="#383b2d"/>
  <path d="m-79.6-62c0.0615 0.302 0.459-7e-3 0.622 0.252 0.188 0.299 0.122 0.59 0.434 0.727 0.295 0.13 0.393 0.632 0.804 0.509 0.199-0.0595 0.22-0.0946 0.48-0.0968 0.909-1-0.281-2.54-1.62-2.04-0.272 0.0928-0.801 0.238-0.717 0.651z" fill="#8a916f"/>
  <path d="m-77.3-62.4c-0.365 0.146-0.325 0.578-0.21 0.882 0.0438 0.303-0.137 0.714 0.181 0.924 0.243 0.0437 0.483 0.132 0.661 0.32 0.172 0.155 0.411 0.302 0.645 0.196 0.352-0.0842 0.756-0.144 1.01-0.418-0.066-0.112-0.209-0.135-0.311-0.0435-0.113 0.0895-0.212 0.015-0.28-0.0796-0.165-0.0991-0.359 0.135-0.509-0.0204-0.118-0.114-0.164-0.324-0.356-0.338-0.211-0.0767-0.315-0.345-0.225-0.549-0.239-0.0188-0.321-0.293-0.318-0.496-0.19-4e-3 -0.332-0.192-0.289-0.377z" fill="#383b2d"/>
  <path d="m-76.6-61.1c0.198 0.167 0.362 0.377 0.587 0.502 0.236 0.132 0.509 0.313 0.773 0.251 0.286-0.067 0.552-0.284 0.63-0.616 0.0487-0.293 0.296-0.592 0.197-0.873-0.102-0.29-0.376-0.655-0.722-0.575-0.776-0.258-1.94 0.245-1.46 1.31z" fill="#8a916f"/>
  <path d="m-36.7-60.6c-0.291 0.0815-0.424 0.0825-0.715 0 0-0.199 0.16-0.36 0.358-0.36s0.358 0.161 0.358 0.36z" fill="#7e7d57" stroke-linecap="round" stroke-linejoin="round" stroke-width=".5" style="paint-order:stroke fill markers"/>
  <path d="m-41.1-60s-4e-3 -1 0.509-1.07" fill="none" stroke="#939366" stroke-linecap="round" stroke-width=".1"/>
  <path d="m-38.6-60.1c-0.359 0.102-0.523 0.103-0.882 0 0-0.248 0.197-0.449 0.441-0.449 0.244 0 0.441 0.201 0.441 0.449z" fill="#7e7d57" stroke-linecap="round" stroke-linejoin="round" stroke-width=".5" style="paint-order:stroke fill markers"/>
  <path d="m-36.8-59.7c-0.431 0.124-0.628 0.126-1.06 0 0-0.302 0.237-0.547 0.529-0.547s0.529 0.245 0.529 0.547z" fill="#7e7d57" stroke-linecap="round" stroke-linejoin="round" stroke-width=".5" style="paint-order:stroke fill markers"/>
  <path d="m-72-61.8c-0.443 0.176-0.395 0.697-0.255 1.06 0.0532 0.366-0.166 0.862 0.219 1.11 0.295 0.0527 0.587 0.159 0.803 0.386 0.53-0.99-0.123-2.06-0.767-2.56z" fill="#383b2d"/>
  <path d="m-72-61.8c-0.202 0.244 0.119 0.612 0.223 0.823 0.135 0.274 0.497 0.142 0.482 0.393 1.76 2.22 3.4 0.76 1.02-1.62-0.23-0.222-0.55-0.0906-0.804 4.7e-4 -0.435 0.143-0.646 0.0689-0.922 0.402z" fill="#8a916f"/>
  <path d="m-72.4-60.3c-0.517 0.212-0.321 0.834-0.247 1.24-8e-3 0.921 0.677 1.34 1.43 1.57 0.452 0.0575 0.917-0.141 1.33-0.313 0.307-0.0688 0.252-0.4-0.0518-0.286-1.25-1.07-1.39-0.721-2.46-2.21z" fill="#383b2d"/>
  <path d="m-72.7-59.8c0.0741 0.365 0.554-9e-3 0.75 0.304 0.227 0.361 0.147 0.711 0.524 0.877 0.356 0.157 0.474 0.762 0.97 0.614 0.24-0.0718 0.266-0.114 0.579-0.117 1.1-1.21-0.338-3.06-1.96-2.46-0.327 0.112-0.966 0.287-0.864 0.785z" fill="#8a916f"/>
  <path d="m-69.9-60.3c-0.44 0.176-0.392 0.697-0.253 1.06 0.0529 0.366-0.165 0.862 0.218 1.11 0.294 0.0527 0.583 0.159 0.797 0.386 0.207 0.186 0.496 0.365 0.778 0.236 0.425-0.102 0.912-0.174 1.22-0.504-0.0796-0.135-0.252-0.163-0.375-0.0525-0.136 0.108-0.255 0.0181-0.338-0.096-0.199-0.12-0.433 0.163-0.614-0.0246-0.143-0.137-0.198-0.391-0.429-0.407-0.255-0.0926-0.38-0.416-0.271-0.662-0.288-0.0227-0.387-0.354-0.383-0.599-0.229-5e-3 -0.401-0.231-0.349-0.455z" fill="#383b2d"/>
  <path d="m-69.1-58.7c0.238 0.202 0.437 0.454 0.708 0.606 0.285 0.16 0.614 0.377 0.932 0.302 0.345-0.0808 0.665-0.343 0.76-0.743 0.0587-0.353 0.357-0.714 0.238-1.05-0.123-0.35-0.453-0.789-0.871-0.693-0.936-0.311-2.34 0.296-1.77 1.58z" fill="#8a916f"/>
  <path d="m-69.9-62.6c-0.443 0.176-0.395 0.697-0.255 1.06 0.0532 0.366-0.166 0.862 0.219 1.11 0.295 0.0527 0.587 0.159 0.803 0.386 0.208 0.186 0.499 0.365 0.783 0.236 0.427-0.102 0.917-0.174 1.23-0.504-1.08-0.893-1.74-0.804-2.78-2.3z" fill="#383b2d"/>
  <path d="m-69.9-62.6c0.0437 0.424 0.412 0.77 0.566 1.15 0.13 0.466 0.528 0.865 0.926 1.11 0.407 0.111 0.86 0.0933 1.28-0.0412 0.406-0.331-0.12-0.952 0.0347-1.42 0.0203-0.609-0.709-0.722-1.02-1.14-0.402-0.422-0.976 0.0472-1.41 0.191-0.125 0.0564-0.25 0.111-0.38 0.156z" fill="#8a916f"/>
  <path d="m-70.7-61.4c-0.358 0.142-0.319 0.563-0.206 0.859 0.0429 0.295-0.185 0.813 0.177 0.9 0.468 0.113 0.733 0.622 1.21 0.521 0.332-0.0706 0.929-0.156 1.03-0.453-0.636-0.73-0.818-1.39-2.21-1.83z" fill="#383b2d"/>
  <path d="m-70.7-61.4c-0.15-0.07 0.162 0.288 0.244 0.431 0.0629 0.109 0.128 0.216 0.192 0.324 0.129 0.219 0.218 0.466 0.385 0.658 0.0742 0.0852 0.164 0.161 0.266 0.21 0.162 0.0772 0.346 0.0965 0.524 0.12 0.201 0.0266 0.434 0.127 0.608 0.0231 0.0952-0.0569 0.129-0.189 0.146-0.299 0.0372-0.241-0.118-0.48-0.109-0.724 4e-3 -0.103 0.104-0.205 0.0689-0.302-0.0506-0.14-0.235-0.184-0.355-0.272-0.0958-0.0699-0.189-0.144-0.292-0.203-0.256-0.144-0.511-0.362-0.805-0.359-0.163 2e-3 -0.294 0.142-0.443 0.209-0.142 0.064-0.288 0.25-0.429 0.184z" fill="#8a916f"/>
  <path d="m-68.9-62.3c-0.176 0.113-0.24 0.338-0.221 0.537 0.02 0.2 0.0832 0.412 0.24 0.548 0.165 0.147 0.382 0.218 0.597 0.25 0.196-0.0252 0.411-0.0286 0.576-0.151 0.0448-0.0351 0.137-0.122 0.024-0.116-0.137-0.0196-0.279-0.0126-0.411-0.0557-0.158-0.0104-0.273-0.137-0.37-0.249-0.0524-0.0567-0.0977-0.116-0.113-0.193-0.0759-0.199-0.236-0.349-0.331-0.538 3e-3 -0.0104 5e-3 -0.0208 8e-3 -0.0312z" fill="#383b2d"/>
  <path d="m-90.7-61.4c-0.453 0.0917-0.877 0.16-1.27 0.206-0.378 0.0306-0.71 0.0537-0.997 0.069-0.332 0.0153-0.628 0.0228-0.884 0.0228-0.151 0-0.355-0.0075-0.612-0.0228-0.212-0.0153-0.499-0.0309-0.861-0.0462-0.363-0.0306-0.809-0.0762-1.34-0.137 0.393 0.351 0.703 0.703 0.93 1.05 0.227 0.336 0.408 0.634 0.544 0.894 0.151 0.321 0.264 0.619 0.34 0.894 0.0151 0.122 0.0306 0.435 0.0457 0.94 0.0302 0.489 0.0526 1.08 0.0678 1.76 0.0302 0.688 0.0532 1.43 0.0683 2.22 0.0151 0.779 0.0226 1.53 0.0226 2.25 0.0151 0.703 0.0151 1.33 0 1.88 0 0.55-0.0075 0.924-0.0226 1.12-0.0302 0.229-0.091 0.482-0.182 0.757-0.0756 0.229-0.204 0.489-0.385 0.779-0.166 0.275-0.393 0.558-0.68 0.848 0.484 0 0.907 0.0075 1.27 0.0228 0.363 0 0.665 0.0075 0.907 0.0228 0.272 0.0153 0.506 0.0228 0.703 0.0228 0.196 0.0153 0.401 0.0309 0.612 0.0462 0.181 0.0306 0.393 0.0612 0.634 0.0917 0.242 0.0153 0.506 0.0378 0.794 0.0684-0.136-0.214-0.272-0.458-0.408-0.733-0.121-0.275-0.227-0.534-0.317-0.779-0.106-0.275-0.204-0.55-0.295-0.825-0.0907-0.29-0.166-0.634-0.227-1.03-0.0604-0.336-0.106-0.741-0.136-1.21-0.0302-0.489-0.0302-1.05 0-1.7 0.363-0.0306 0.726-0.0531 1.09-0.0684 0.378-0.0306 0.718-0.0612 1.02-0.0917 0.363-0.0153 0.71-0.0309 1.04-0.0462 0.332 0 0.65-0.0075 0.952-0.0228 0.257-0.0153 0.529-0.0228 0.816-0.0228 0.302-0.0153 0.559-0.0228 0.771-0.0228-0.0302 1.16-0.0601 2.09-0.0904 2.8-0.0302 0.703-0.0606 1.25-0.0909 1.63-0.0302 0.458-0.0526 0.779-0.0678 0.962-0.0302 0.153-0.0831 0.313-0.159 0.482-0.0756 0.153-0.182 0.336-0.318 0.55-0.136 0.199-0.317 0.405-0.544 0.619l5.46-0.413c-0.242-0.26-0.438-0.535-0.589-0.825-0.151-0.306-0.272-0.588-0.362-0.848-0.106-0.29-0.182-0.573-0.227-0.848-0.0453-0.229-0.0758-0.619-0.0909-1.17-0.0151-0.565-0.0226-1.21-0.0226-1.93 0.0151-0.718 0.0301-1.48 0.0452-2.29 0.0302-0.81 0.0606-1.59 0.0909-2.34 0.0453-0.749 0.0907-1.43 0.136-2.04 0.0604-0.611 0.129-1.08 0.204-1.4l0.181-0.642c0.0604-0.183 0.136-0.39 0.226-0.619 0.0907-0.229 0.197-0.451 0.318-0.665-0.484 0.0306-0.892 0.0537-1.22 0.069-0.332 0-0.612 0.0075-0.839 0.0228-0.272 0.0153-0.491 0.0228-0.658 0.0228s-0.37-0.0075-0.612-0.0228c-0.212-0.0153-0.476-0.0303-0.794-0.0456-0.302-0.0306-0.65-0.0768-1.04-0.138 0.212 0.382 0.378 0.711 0.498 0.986 0.136 0.26 0.242 0.481 0.318 0.664 0.0907 0.214 0.158 0.398 0.204 0.55 0.0605 0.275 0.106 0.611 0.136 1.01 0.0302 0.351 0.0377 0.787 0.0226 1.31 0 0.504-0.0379 1.11-0.113 1.81-0.922 0.0764-1.61 0.122-2.06 0.137-0.272 0.0153-0.514 0.0309-0.725 0.0462h-0.748c-0.257 0-0.574 0.0075-0.952 0.0228-0.378 0-0.824-0.0075-1.34-0.0228 0.121-1.04 0.219-1.88 0.295-2.52 0.0907-0.642 0.174-1.14 0.249-1.49 0.0756-0.413 0.143-0.718 0.204-0.917 0.0604-0.153 0.136-0.321 0.227-0.504 0.0756-0.168 0.181-0.351 0.317-0.55 0.136-0.214 0.31-0.436 0.522-0.665zm37.8 0.271c-0.751 0.0143-1.49 0.093-2.21 0.236-0.708 0.129-1.36 0.272-1.96 0.43-0.595 0.143-1.04 0.194-1.34 0.151-0.241-0.0286-0.517-0.0649-0.829-0.108-0.269-0.0286-0.588-0.0643-0.956-0.107-0.368-0.0573-0.779-0.122-1.23-0.193 0.368 0.287 0.659 0.573 0.871 0.86 0.213 0.287 0.376 0.544 0.489 0.773 0.142 0.258 0.234 0.516 0.276 0.774 0.0081 0.0824 0.0165 0.37 0.0246 0.58-0.245 8e-3 -0.555 0.0195-0.752 0.025-0.421 0.0122-0.759 0.024-1.01 0.0361-0.301 0.0122-0.53 0.0245-0.686 0.0367s-0.355 0.0122-0.596 0c-0.205-0.0122-0.475-0.0363-0.813-0.0728-0.325-0.0365-0.735-0.0915-1.23-0.165 0.313 0.207 0.548 0.383 0.704 0.529 0.169 0.134 0.289 0.25 0.361 0.348 0.0843 0.11 0.133 0.194 0.145 0.255-0.0361 0.0974-0.145 0.298-0.325 0.603-0.157 0.256-0.397 0.633-0.722 1.13-0.325 0.499-0.783 1.19-1.37 2.06-0.494-0.694-0.867-1.26-1.12-1.7-0.253-0.438-0.427-0.786-0.524-1.04-0.132-0.304-0.187-0.529-0.163-0.676 0.0361-0.122 0.0905-0.25 0.163-0.384 0.0602-0.11 0.144-0.219 0.253-0.329 0.108-0.122 0.259-0.231 0.452-0.329-0.903 0.073-1.6 0.11-2.1 0.11-0.289 0-0.53-0.0062-0.722-0.0184-0.181-0.0122-0.416-0.0245-0.705-0.0367-0.241-0.0122-0.548-0.024-0.921-0.0361-0.373-0.0122-0.825-0.0307-1.35-0.055 0.421 0.243 0.777 0.457 1.07 0.639 0.289 0.17 0.524 0.316 0.704 0.438 0.217 0.134 0.385 0.256 0.506 0.365 0.132 0.146 0.338 0.408 0.614 0.785 0.241 0.329 0.554 0.797 0.939 1.41 0.397 0.609 0.915 1.43 1.55 2.47-0.578 0.804-1.05 1.46-1.43 1.97-0.361 0.511-0.644 0.919-0.849 1.22-0.253 0.353-0.44 0.621-0.56 0.804-0.12 0.158-0.283 0.341-0.488 0.548-0.181 0.17-0.415 0.383-0.704 0.639-0.289 0.243-0.65 0.517-1.08 0.822l5.35-0.237c-0.277-0.134-0.488-0.274-0.632-0.42-0.132-0.146-0.229-0.28-0.289-0.402-0.0602-0.134-0.0898-0.268-0.0898-0.401 0.0482-0.146 0.145-0.341 0.289-0.584 0.132-0.207 0.325-0.481 0.578-0.822 0.265-0.353 0.638-0.791 1.12-1.31 0.421 0.621 0.752 1.12 0.993 1.5 0.241 0.377 0.428 0.67 0.56 0.877 0.145 0.243 0.247 0.426 0.307 0.548 0.0361 0.0852 0.0302 0.183-0.018 0.292-0.0361 0.0974-0.108 0.213-0.217 0.347-0.0963 0.122-0.253 0.25-0.47 0.384 0.614-0.0609 1.15-0.104 1.61-0.128 0.458-0.0244 0.843-0.049 1.16-0.0734 0.361-0.0244 0.668-0.0361 0.921-0.0361h0.554c-0.175 0.205-0.372 0.426-0.614 0.681 0.468-0.0143 0.899-0.0211 1.3-0.0211h1.06c0.354 0 0.674 0.0068 0.957 0.0211 0.283 0.0143 0.58 0.0217 0.892 0.0217 0.269 0.0143 0.567 0.0217 0.893 0.0217h1.06c-0.198-0.143-0.375-0.322-0.531-0.537-0.156-0.229-0.283-0.444-0.382-0.645-0.128-0.244-0.227-0.494-0.298-0.752-0.0708-0.258-0.134-0.566-0.191-0.924-0.0425-0.301-0.0779-0.674-0.106-1.12-0.0283-0.458-0.0283-0.995 0-1.61 0.128-0.0286 0.262-0.0502 0.403-0.0645 0.156-0.0286 0.298-0.0502 0.426-0.0645 0.156-0.0143 0.298-0.0285 0.425-0.0428 0.142-0.0143 0.326-0.0358 0.552-0.0645 0.198-0.0286 0.432-0.0575 0.701-0.0862 0.283-0.043 0.631-0.1 1.04-0.172 0.411 0.444 0.709 0.888 0.893 1.33 0.184 0.43 0.297 0.823 0.34 1.18 0.0567 0.415 0.0498 0.817-0.021 1.2-0.0567 0.215-0.149 0.437-0.276 0.666-0.113 0.201-0.269 0.423-0.468 0.666-0.198 0.244-0.454 0.487-0.765 0.731 0.708-0.0143 1.31-0.0217 1.81-0.0217h1.25c0.383 0 0.701 0.0074 0.956 0.0217 0.255 0.0143 0.524 0.0211 0.807 0.0211h0.85c0.34 0 0.709-0.0068 1.11-0.0211-0.283-0.201-0.524-0.408-0.722-0.623-0.184-0.215-0.348-0.415-0.489-0.602-0.156-0.215-0.29-0.423-0.403-0.623-0.142-0.258-0.234-0.487-0.276-0.688-0.0425-0.201-0.0779-0.394-0.106-0.58-0.0142-0.201-0.0496-0.408-0.106-0.623-0.0567-0.215-0.163-0.473-0.319-0.773-0.128-0.215-0.319-0.437-0.574-0.666-0.213-0.186-0.496-0.387-0.85-0.602-0.34-0.215-0.772-0.401-1.3-0.559 0.538-0.172 1.01-0.372 1.4-0.602 0.411-0.229 0.765-0.473 1.06-0.731 0.298-0.258 0.545-0.523 0.744-0.795 0.213-0.287 0.382-0.558 0.51-0.816 0.298-0.616 0.453-1.25 0.468-1.91-0.0142-0.444-0.0707-0.852-0.17-1.22-0.0992-0.372-0.269-0.724-0.51-1.05-0.227-0.344-0.538-0.666-0.935-0.967-0.397-0.301-0.907-0.602-1.53-0.902-0.623-0.301-1.31-0.437-2.06-0.408zm-1.57 1.89c0.198 0 0.425 0.0498 0.68 0.15 0.269 0.086 0.51 0.251 0.723 0.494 0.227 0.229 0.404 0.545 0.531 0.946 0.142 0.401 0.184 0.91 0.127 1.53-0.0708 0.616-0.134 1.1-0.191 1.46-0.0425 0.358-0.0996 0.637-0.17 0.838-0.0708 0.186-0.155 0.322-0.255 0.408-0.0992 0.086-0.22 0.172-0.361 0.258-0.241 0.129-0.532 0.229-0.872 0.301-0.283 0.0716-0.63 0.121-1.04 0.15-0.411 0.0143-0.886-0.0214-1.42-0.107-0.0567-1.07-0.0783-1.94-0.0642-2.6 0.0142-0.659 0.0427-1.17 0.0852-1.55 0.0567-0.43 0.121-0.737 0.191-0.924 0.198-0.415 0.489-0.745 0.871-0.989 0.383-0.244 0.772-0.365 1.17-0.365zm14.1 0.434c-0.879-0.0244-1.66 0.0851-2.33 0.329-0.662 0.231-1.24 0.56-1.73 0.986-0.494 0.414-0.903 0.901-1.23 1.46-0.313 0.548-0.56 1.12-0.741 1.72-0.169 0.584-0.283 1.17-0.343 1.77-0.0482 0.584-0.0417 1.12 0.0185 1.61 0.0602 0.584 0.216 1.14 0.469 1.68 0.265 0.536 0.591 1.03 0.976 1.5 0.385 0.45 0.813 0.852 1.28 1.21 0.482 0.353 0.969 0.645 1.46 0.876 0.506 0.219 0.999 0.372 1.48 0.457 0.494 0.073 0.945 0.0607 1.35-0.0367 0.674-0.158 1.35-0.481 2.02-0.968 0.674-0.499 1.27-1.1 1.79-1.81 0.518-0.706 0.921-1.48 1.21-2.32 0.301-0.852 0.409-1.71 0.325-2.57-0.0963-1.06-0.343-1.95-0.74-2.68-0.397-0.743-0.879-1.35-1.45-1.81-0.566-0.475-1.19-0.816-1.86-1.02-0.662-0.219-1.32-0.341-1.97-0.365zm12 0.42c-0.578 0.0852-1.07 0.146-1.46 0.183-0.385 0.0365-0.698 0.0668-0.939 0.0912-0.289 0.0244-0.512 0.0367-0.668 0.0367-0.157 0-0.343-0.0062-0.56-0.0184-0.181-0.0122-0.409-0.0307-0.686-0.055-0.265-0.0244-0.572-0.067-0.921-0.128 0.132 0.134 0.247 0.292 0.343 0.475 0.108 0.17 0.199 0.341 0.271 0.512 0.0843 0.195 0.156 0.39 0.217 0.584 0.0482 0.17 0.0842 0.481 0.108 0.931 0.0361 0.45 0.0604 0.98 0.0724 1.59 0.012 0.609 0.012 1.27 0 1.99 0 0.706-0.0183 1.4-0.0544 2.08-0.0241 0.682-0.0602 1.33-0.108 1.94-0.0482 0.597-0.108 1.09-0.181 1.48-0.012 0.0852-0.0422 0.189-0.0904 0.31-0.0361 0.0974-0.09 0.219-0.162 0.365-0.0602 0.146-0.139 0.304-0.235 0.475 0.819-0.0487 1.54-0.0852 2.17-0.11 0.626-0.0365 1.15-0.0668 1.57-0.0912 0.494-0.0244 0.927-0.0423 1.3-0.0545 0.349-0.0122 0.729-0.0183 1.14-0.0183 0.349 0 0.753 0.0062 1.21 0.0183 0.458 0.0122 0.939 0.0363 1.45 0.0728 0.0241-0.377 0.0359-0.724 0.0359-1.04 0.012-0.317 0.0239-0.59 0.0359-0.822 0.012-0.268 0.0244-0.511 0.0364-0.731 0.012-0.268 0.018-0.591 0.018-0.968 0.012-0.377 0.018-0.737 0.018-1.08 0.012-0.353 0.018-0.651 0.018-0.895 0.012-0.256 0.018-0.396 0.018-0.42 0-0.0122-0.0538 0.122-0.162 0.402-0.108 0.28-0.247 0.621-0.416 1.02-0.157 0.402-0.337 0.822-0.542 1.26-0.205 0.438-0.403 0.797-0.596 1.08-0.0722 0.11-0.175 0.226-0.307 0.348-0.132 0.11-0.319 0.207-0.56 0.292-0.241 0.0852-0.554 0.152-0.939 0.201-0.373 0.0365-0.843 0.0309-1.41-0.0178-0.373-0.0244-0.65-0.22-0.831-0.585-0.181-0.377-0.295-0.852-0.343-1.42-0.0361-0.572-0.0238-1.2 0.0364-1.88 0.0602-0.694 0.144-1.38 0.253-2.05 0.12-0.67 0.241-1.29 0.361-1.86 0.132-0.572 0.241-1.02 0.325-1.35 0.0963-0.365 0.211-0.7 0.343-1 0.108-0.256 0.229-0.493 0.361-0.712 0.145-0.231 0.301-0.372 0.469-0.42zm10.3 0c-0.578 0.0852-1.07 0.146-1.46 0.183-0.385 0.0365-0.699 0.0668-0.939 0.0912-0.289 0.0244-0.512 0.0367-0.668 0.0367-0.157 0-0.343-0.0062-0.56-0.0184-0.181-0.0122-0.409-0.0307-0.686-0.055-0.265-0.0244-0.572-0.067-0.921-0.128 0.132 0.134 0.247 0.292 0.343 0.475 0.108 0.17 0.199 0.341 0.271 0.512 0.0843 0.195 0.156 0.39 0.217 0.584 0.0482 0.17 0.0848 0.481 0.109 0.931 0.0361 0.45 0.0598 0.98 0.0719 1.59s0.012 1.27 0 1.99c0 0.706-0.0178 1.4-0.0539 2.08-0.0241 0.682-0.0602 1.33-0.108 1.94-0.0482 0.597-0.108 1.09-0.181 1.48-0.012 0.0852-0.0422 0.189-0.0904 0.31-0.0361 0.0974-0.0905 0.219-0.163 0.365-0.0602 0.146-0.138 0.304-0.235 0.475 0.819-0.0487 1.54-0.0852 2.17-0.11 0.626-0.0365 1.15-0.0668 1.57-0.0912 0.494-0.0244 0.928-0.0423 1.3-0.0545 0.349-0.0122 0.728-0.0183 1.14-0.0183 0.349 0 0.753 0.0062 1.21 0.0183 0.458 0.0122 0.939 0.0363 1.45 0.0728 0.0241-0.377 0.0359-0.724 0.0359-1.04 0.012-0.317 0.0244-0.59 0.0364-0.822 0.012-0.268 0.0239-0.511 0.0359-0.731 0.012-0.268 0.018-0.591 0.018-0.968 0.012-0.377 0.018-0.737 0.018-1.08 0.012-0.353 0.0185-0.651 0.0185-0.895 0.012-0.256 0.018-0.396 0.018-0.42 0-0.0122-0.0544 0.122-0.163 0.402-0.108 0.28-0.247 0.621-0.415 1.02-0.157 0.402-0.337 0.822-0.542 1.26-0.205 0.438-0.403 0.797-0.596 1.08-0.0722 0.11-0.175 0.226-0.307 0.348-0.132 0.11-0.319 0.207-0.56 0.292-0.241 0.0852-0.554 0.152-0.939 0.201-0.373 0.0365-0.843 0.0309-1.41-0.0178-0.373-0.0244-0.65-0.22-0.831-0.585-0.181-0.377-0.295-0.852-0.343-1.42-0.0361-0.572-0.0243-1.2 0.0359-1.88 0.0602-0.694 0.145-1.38 0.253-2.05 0.12-0.67 0.24-1.29 0.361-1.86 0.132-0.572 0.241-1.02 0.325-1.35 0.0963-0.365 0.21-0.7 0.343-1 0.108-0.256 0.229-0.493 0.361-0.712 0.145-0.231 0.301-0.372 0.47-0.42zm-64.9 0.877c0.289 0.17 0.53 0.323 0.723 0.456s0.343 0.25 0.451 0.347c0.132 0.122 0.235 0.225 0.307 0.31 0.145 0.243 0.271 0.798 0.379 1.66 0.108 0.864 0.132 2 0.0719 3.4 0.012 0.56 0.012 1.17 0 1.83-0.012 0.56-0.0357 1.21-0.0719 1.95-0.0241 0.73-0.0666 1.51-0.127 2.34 0.686-0.0852 1.31-0.153 1.88-0.201 0.578-0.0487 1.08-0.0852 1.5-0.11 0.482-0.0365 0.921-0.0545 1.32-0.0545 0.385-0.0122 0.807-0.0245 1.26-0.0367 0.385-0.0122 0.831-0.0183 1.34-0.0183 0.506-0.0122 1.04-0.0245 1.61-0.0367 0.0843-0.609 0.15-1.11 0.199-1.5 0.0602-0.402 0.103-0.718 0.127-0.95 0.0361-0.268 0.0539-0.475 0.0539-0.621 0.012-0.134 0.0303-0.329 0.0544-0.584 0.0241-0.219 0.0419-0.505 0.0539-0.858 0.0241-0.365 0.0602-0.822 0.108-1.37-0.289 0.657-0.584 1.22-0.885 1.68-0.289 0.463-0.554 0.846-0.795 1.15-0.289 0.353-0.56 0.646-0.813 0.877-0.337 0.28-0.723 0.481-1.16 0.603-0.434 0.122-0.861 0.195-1.28 0.219-0.409 0.0122-0.777-0.012-1.1-0.0728-0.325-0.073-0.542-0.165-0.65-0.274-0.0843-0.11-0.156-0.292-0.217-0.548-0.0602-0.219-0.108-0.53-0.144-0.932-0.0241-0.414-0.0182-0.956 0.018-1.63 0.301-0.0609 0.548-0.0912 0.74-0.0912 0.205 0 0.374 0.0062 0.506 0.0183 0.145 0.0244 0.259 0.0485 0.343 0.0728 0.0722 0.0609 0.157 0.17 0.253 0.329 0.0843 0.134 0.181 0.335 0.289 0.603 0.12 0.256 0.253 0.609 0.397 1.06-0.0241-0.657-0.0424-1.2-0.0544-1.63v-1.73c-0.012-0.158-0.018-0.372-0.018-0.639-0.012-0.231-0.018-0.529-0.018-0.895 0-0.377-0.0119-0.846-0.0359-1.41-0.181 0.511-0.337 0.913-0.47 1.21-0.12 0.292-0.217 0.523-0.289 0.694-0.0963 0.195-0.168 0.328-0.217 0.401-0.0602 0.0609-0.157 0.128-0.289 0.201-0.12 0.0609-0.283 0.134-0.488 0.219-0.193 0.0852-0.452 0.176-0.777 0.274 0.0602-0.694 0.115-1.26 0.163-1.7 0.0602-0.438 0.12-0.785 0.181-1.04 0.0602-0.304 0.126-0.53 0.199-0.676 0.0843-0.17 0.163-0.323 0.235-0.456 0.0843-0.146 0.204-0.274 0.361-0.384 0.157-0.11 0.373-0.194 0.65-0.255 0.277-0.0609 0.662-0.104 1.16-0.128 0.373 0.0122 0.729 0.109 1.07 0.292 0.289 0.158 0.572 0.408 0.849 0.749 0.289 0.341 0.518 0.84 0.686 1.5 0.0602-0.207 0.102-0.408 0.126-0.603 0.0241-0.195 0.0483-0.377 0.0724-0.548 0.0241-0.195 0.0419-0.377 0.0539-0.548 0.012-0.17 0.0185-0.36 0.0185-0.567 0-0.17-0.0124-0.365-0.0364-0.584-0.012-0.231-0.0298-0.469-0.0539-0.712h-7.71c-0.554-0.0122-1.25-0.0301-2.1-0.0545zm23.3 0.266c0.0137 0.52 0.0268 1.13 0.0406 1.85 0.0142 0.731 0.0216 1.52 0.0216 2.36 0 0.845-0.0074 1.65-0.0216 2.43-0.0142 0.774-0.0353 1.46-0.0636 2.06-0.0142 0.587-0.0353 0.996-0.0637 1.22-0.0283 0.143-0.106 0.315-0.234 0.515-0.0228 0.0374-0.0564 0.0842-0.0832 0.125-0.126-0.0679-0.287-0.152-0.386-0.207-0.253-0.134-0.451-0.244-0.596-0.329-0.157-0.11-0.404-0.322-0.741-0.639-0.289-0.268-0.686-0.657-1.19-1.17-0.506-0.511-1.17-1.21-1.99-2.08 1.01-1.28 1.82-2.29 2.42-3.03 0.602-0.755 1.07-1.33 1.39-1.72 0.385-0.45 0.651-0.749 0.795-0.895 0.12-0.0852 0.259-0.189 0.415-0.31 0.0769-0.0566 0.186-0.126 0.283-0.191zm19.5 0.295c0.0685-0.0013 0.138 4.52e-4 0.208 5e-3 0.325 0.0244 0.638 0.152 0.939 0.384 0.313 0.231 0.578 0.56 0.795 0.986 0.217 0.414 0.367 0.92 0.452 1.52 0.0963 0.584 0.0904 1.24-0.018 1.97-0.108 0.73-0.277 1.43-0.506 2.1-0.229 0.67-0.5 1.25-0.813 1.75-0.313 0.499-0.662 0.883-1.05 1.15-0.373 0.256-0.765 0.341-1.17 0.256-0.843-0.17-1.47-0.651-1.9-1.44-0.409-0.791-0.53-1.84-0.361-3.14 0.0843-0.645 0.211-1.3 0.379-1.97 0.181-0.67 0.415-1.27 0.704-1.81 0.289-0.536 0.644-0.968 1.07-1.3 0.369-0.298 0.793-0.452 1.27-0.461z" fill="#e5e4e0" stroke="#363636" stroke-linecap="square" stroke-linejoin="round" stroke-width="3.37" style="paint-order:stroke fill markers;white-space:pre"/>
  <path d="m-34.7-59.7c-0.495 0.123-0.72 0.124-1.21 0 0-0.3 0.272-0.542 0.607-0.542s0.607 0.243 0.607 0.542z" fill="#7e7d57" stroke-linecap="round" stroke-linejoin="round" stroke-width=".5" style="paint-order:stroke fill markers"/>
  <path d="m-62.1-71.2-1.35 2 2.5 2.75 1.1-0.695 2.3 1.54 2.22-1.11 2.12-0.745 3.27 0.684-0.495-1.5-2.57-2.28-2.2 0.549-1.31-1.12-3.07 0.391-0.32 0.486-0.992-0.846z" fill="#e4ffff"/>
  <path d="m-60.9-71.1-0.343 0.553 0.467 1.1 0.309 0.0181 0.567-0.839-1-0.832z" fill="#b5e4e4"/>
  <path d="m-56.5-71.1-0.343 0.553 0.375 0.882 2.4-0.597-1.34 0.0718-1.09-0.91z" fill="#b5e4e4"/>
  <path d="m-53.2-67.4-1.95-1.98-1.79 0.0966-1.32-1.09-0.413 0.666 0.563 1.32 2.23 0.132 0.56 1.6z" fill="#b5e4e4"/>
  <path d="m-47.9-67.5-1.92-1.91-1.79 0.0966-1.33-1.19-0.403 0.763 0.563 1.32 2.23 0.132 0.566 1.56z" fill="#b5e4e4"/>
  <path d="m-54.3-34.7c0.466 0.0245 0.614 0.456 0.286 0.749 1.11 1.11 2.04 1.42 1.98 0.155-0.747-0.306-1.36-0.909-2.26-0.904z" fill="#b2a898" stroke-width=".776"/>
  <path d="m-54.4-34.7c-1.23 0.248-2.13 1.21-3.47 1.14 2.92 2.65 3.97 1.24 3.98-0.0956 0.0556-0.252 0.396-0.473 0.203-0.74-0.117-0.211-0.418-0.359-0.713-0.307z" fill="#d9d4cb" stroke-width=".776"/>
  <path d="m-57.5-34.9c0.466 0.0245 0.744 0.502 0.416 0.795-0.173 0.178-0.161 0.52 0.135 0.622 0.416 0.194 1.06 0.133 1.28 0.538 0.177 0.268 0.457 0.602 0.909 0.527 0.526 0.0375 0.709-0.587 0.985-0.882 0.209-0.688-1.02-0.403-1.46-0.696-0.747-0.306-1.36-0.909-2.26-0.904z" fill="#b2a898" stroke-width=".776"/>
  <path d="m-57.7-34.9c-1.23 0.248-2.13 1.21-3.47 1.14 0.997 3.09 3.73 3.78 6.64 1.35-0.349 2e-3 -0.763 4e-3 -0.957-0.271-0.214-0.279-0.424-0.615-0.88-0.675-0.307-0.0793-0.848-0.163-0.825-0.495 0.0556-0.252 0.396-0.473 0.203-0.74-0.117-0.211-0.418-0.359-0.713-0.307z" fill="#d9d4cb" stroke-width=".776"/>
  <path d="m-48.7-33.8c-0.563-0.0415-0.77-0.589-1.23-0.799-0.253-0.153-0.838-0.235-0.269-0.0743 0.341 0.165 0.368 0.577 0.177 0.813-0.16 0.197-0.218 0.532 0.092 0.654 0.368 0.086 1.4 0.61 1.2 0.0758-0.0503-0.134 0.432-0.697 0.0324-0.669z" fill="#b2a898" stroke-width=".872"/>
  <path d="m-48.8-32.9c-0.408-0.202-1.06-0.167-1.29-0.554-0.0937-0.334 0.449-0.589 0.236-0.926-0.129-0.29-0.546-0.449-0.921-0.375-1.44 0.115-2.73 0.688-4.04 1.13-1.14 0.384-2.29 0.861-3.55 0.898-0.517-0.055 5.96 2.52 7.09 1.47 0.16-0.445 0.392-0.905 0.904-1.18 0.451-0.265 1.01-0.416 1.56-0.465z" fill="#d9d4cb" stroke-width=".872"/>
  <path d="m-61.5-34.4c0.644 0.0334 1.26 0.684 0.839 1.12-0.199 0.236-0.388 0.625-0.0221 0.83 0.578 0.383 1.55 0.28 1.93 0.866 1.56 1.95 3.83-1.09 2.25-1.17-0.609-0.043-1.23-0.127-1.75-0.4-1.01-0.465-2.01-1.25-3.26-1.24z" fill="#b2a898"/>
  <path d="m-61.5-34.4c-0.192 4e-3 -0.383 0.055-0.542 0.164-0.696 0.473-1.26 1.39-1.84 1.94 2.52 0.124 5.93 4.43 7.94 2.98 1.1-0.733 2.69-0.242 4.11-0.149 0.34 0.0545 0.623 0.108 0.273-0.175-0.623-0.62-1.91-0.419-2.47-1.09-0.295-0.525 0.568-0.927 0.41-1.45-0.0924-0.415-0.554-0.772-1.09-0.809-1.85 0.0545-4.76 2.78-4.71 0.949-0.489-0.158-1.19-0.195-1.43-0.627-0.127-0.428 0.556-0.745 0.33-1.18-0.115-0.339-0.545-0.561-0.968-0.553z" fill="#d9d4cb"/>
  <path d="m-50.1-31.2c-1.51-0.482-2.3-1.78-4.58-1.83 0.146 0.0716 1.5 0.74 0.71 1.66-0.224 0.29-0.146 0.698 0.261 0.86 0.711 0.393 1.83 0.387 2.3 1.04 0.468-0.0287 1.02-1.31 1.31-1.74z" fill="#b2a898"/>
  <path d="m-71.7-46.7c-0.0368 0.114-0.0784 0.268-0.125 0.434 0.0433-0.164 0.0834-0.318 0.125-0.434zm0 0c-0.473 0.215-1.08 0.683-1.25 1.15-0.262 0.537-0.751 0.926-1.3 1.1-0.0163 0.0263-0.0308 0.0525-0.0439 0.0786-0.187-0.142-0.355-0.314-0.491-0.533-0.228-0.34-0.587-0.567-0.781-0.934-0.0777 0.24-0.0965 0.504-0.109 0.769 6e-3 -0.262 0.0223-0.525 0.109-0.769-4.41 3.01 8.7 5.71 7.64 1.1-0.158-0.236-0.407-0.393-0.541-0.647v-5.17e-4h-5.1e-4c-0.421 0.191-0.925 0.538-1.27 0.933-0.234-0.242-0.282-0.52-0.587-0.747-0.54-0.178-0.831-0.453-0.947-0.998-0.123-0.183-0.316-0.305-0.421-0.503zm3.22 1.34c-0.0473 0.149-0.1 0.347-0.159 0.559 0.0554-0.21 0.107-0.407 0.159-0.559z" fill="#333" stroke="#333" stroke-linecap="round" stroke-linejoin="round" stroke-width="1.4"/>
  <path d="m-71.7-47c-0.473 0.215-1.08 0.683-1.25 1.15-0.262 0.537-0.751 0.926-1.3 1.1-0.96 1.55 3.77 2.71 3.61 2.19-0.0494-0.484-0.506-0.642-0.776-0.957-0.375-0.383-1.02-0.483-1.11-1.11-0.218-0.42-0.169-0.647 0.273-0.913 0.296-0.303 0.413-1.08 0.549-1.46z" fill="#6e6357"/>
  <path d="m-71.7-47c-0.121 0.373-0.279 1.17-0.554 1.46-0.414 0.257-0.517 0.417-0.326 0.825 0.0751 0.43 0.358 0.686 0.719 0.881 0.367 0.146 0.375 0.499 0.722 0.684 0.412 0.21 3e-3 0.243-0.191 0.692 0.764 0.131 0.988 0.28 1.19 0.48 0.59-0.136 0.529-0.57 0.851-0.932 0.26-0.264 0.4-0.636 0.532-0.982 0.0674-0.458-0.598-0.438-0.821-0.726-0.387-0.268-0.384-0.613-0.749-0.884-0.54-0.178-0.83-0.453-0.947-0.998-0.123-0.183-0.316-0.306-0.421-0.503z" fill="#b6aa98"/>
  <path d="m-70.2-45.1c2e-3 0.0372 0.0518 0.324 0.0363 0.463 0.0765 0.198-0.121 0.405-0.189 0.624-0.0859 0.232 0.123 0.394 0.147 0.608 5e-3 0.269-0.037 0.55 0.202 0.735 0.129 0.14 0.0474 0.444 0.266 0.494 0.19-0.171 0.241-0.418 0.402-0.65-5e-3 -0.0686-0.0111-0.137-0.0167-0.206-0.0564-0.163 0.0289-0.462-0.222-0.465-0.254-0.0213-0.527-0.171-0.512-0.465 7e-3 -0.203 0.268-0.404 0.114-0.544-0.156-0.159-0.164-0.391-0.227-0.593z" fill="#6e6357"/>
  <path d="m-70.7-44c-0.0433-0.0897-0.179-0.0565-0.214-0.153-2e-3 -0.0899-0.0889-0.135-0.161-0.158-0.0652-0.0263-0.131-0.0494-0.202-0.0573-0.0617-7e-3 -0.111-0.0471-0.147-0.0962-0.0584-0.0528-0.148-0.102-0.139-0.195 0.0165-0.136-0.0124-0.27-0.0274-0.405 0-0.0865 0.0285-0.192-0.0722-0.234-0.0717-0.062-0.116-0.161-0.0999-0.259 0.0101-0.0813-0.0108-0.161-0.0204-0.241 0.0456 0.0426 0.136 0.125 0.19 0.192 0.0592 0.0864 0.069 0.206 0.154 0.274 0.0844 0.0753 0.0392 0.193 0.0348 0.289 0.0156 0.102 0.0599 0.21 0.0867 0.302 0.0789 0.0476 0.12 0.138 0.192 0.192 0.115 0.08 0.23 0.177 0.275 0.318 0.032 0.115 0.177 0.144 0.201 0.264 3e-3 0.0162 7e-3 0.0372 0.0211 0.0476" fill="#6e6357"/>
  <path d="m-70.8-44.6c0.0245-0.0921 0.116-0.195 0.153-0.282 0.0369-0.098-0.22-0.0847-0.25-0.155-0.0321-0.055-0.0845-0.0975-0.0979-0.163-0.0136-0.0568-8e-3 -0.141-0.0772-0.159-0.0767-0.0293-0.161-0.062-0.203-0.14 9e-3 0.0476 0.0687 0.0974 0.107 0.136 0.0584 0.0432 0.112 0.113 0.0847 0.191-0.0287 0.0697 0.0455 0.107 0.0736 0.16 0.0591 0.0455 0.152 0.122 0.182 0.178 0.0575 0.0142 6e-3 0.036-5e-3 0.112-9e-3 0.0495-0.015 0.096 0.033 0.123z" fill="#6e6357"/>
  <path d="m-69.8-44.3c-0.0235-2.5e-4 0.01 0.0458 0.0437 0.0623 0.0575 0.0794 0.174 0.08 0.226 0.162 0.0313 0.0927-0.0164 0.203 0.0538 0.285 0.0447 0.0799 0.153 0.0773 0.194 0.162 0.0322 0.0798 0.105 0.122 0.156 0.184 0.0327 0.0869-0.0651 0.155-0.0594 0.243 0 0.0214 0.0122 0.0342 0.0289 0.0419 0.0826-0.123 0.15-0.258 0.211-0.397-0.0264-0.0448-0.0638-0.0825-0.106-0.105-0.0869-0.0221-0.159-0.0848-0.188-0.169 0.0108-0.0939-0.0115-0.186-0.118-0.189-0.0821-0.0278-0.0546-0.159-0.155-0.164-0.0936-8e-3 -0.164-0.0797-0.253-0.103-0.0167-9e-3 -0.0276-0.0126-0.0342-0.0127z" fill="#36312b"/>
  <path d="m-68.5-45.7c-0.609 0.277-1.39 0.879-1.61 1.48-0.337 0.692-0.966 1.19-1.68 1.42-1.04 0.984 2.07 2.81 3.78 2.94 0.517-0.0676 1.07 0.497 0.867-0.129-0.0636-0.623-0.652-0.826-0.998-1.23-0.482-0.492-1.31-0.622-1.42-1.43-0.281-0.541-0.217-0.832 0.352-1.18 0.381-0.39 0.532-1.39 0.707-1.88z" fill="#534c43"/>
  <path d="m-68.5-45.7c-0.155 0.48-0.359 1.5-0.714 1.88-0.533 0.331-0.666 0.537-0.419 1.06 0.0967 0.553 0.461 0.883 0.926 1.13 0.473 0.188 0.483 0.642 0.929 0.88 0.53 0.27 4e-3 0.312-0.246 0.891 0.984 0.168 1.27 0.361 1.53 0.618 0.759-0.174 0.681-0.734 1.1-1.2 0.334-0.34 0.514-0.819 0.684-1.26 0.0867-0.59-0.77-0.563-1.06-0.934-0.498-0.345-0.494-0.789-0.964-1.14-0.695-0.23-1.07-0.584-1.22-1.28-0.158-0.236-0.407-0.393-0.541-0.648z" fill="#b6aa98"/>
  <path d="m-66.6-43.2c3e-3 0.0478 0.0666 0.418 0.0467 0.596 0.0985 0.255-0.156 0.522-0.243 0.803-0.111 0.298 0.158 0.507 0.19 0.783 6e-3 0.347-0.0477 0.707 0.26 0.946 0.166 0.18 0.061 0.572 0.343 0.635 0.245-0.22 0.31-0.538 0.517-0.836-7e-3 -0.0883-0.0143-0.177-0.0215-0.265-0.0726-0.21 0.0372-0.595-0.286-0.599-0.327-0.0274-0.679-0.22-0.659-0.598 0.01-0.261 0.345-0.52 0.147-0.701-0.201-0.205-0.212-0.504-0.293-0.764z" fill="#534c43"/>
  <path d="m-67.2-41.8c-0.0557-0.115-0.231-0.0728-0.275-0.197-2e-3 -0.116-0.114-0.174-0.208-0.204-0.084-0.0339-0.169-0.0635-0.259-0.0737-0.0795-8e-3 -0.143-0.0606-0.189-0.124-0.0752-0.0679-0.19-0.131-0.179-0.251 0.0212-0.175-0.0159-0.348-0.0352-0.521 0-0.111 0.0367-0.247-0.0929-0.302-0.0922-0.0799-0.15-0.207-0.129-0.334 0.0129-0.105-0.014-0.207-0.0263-0.31 0.0587 0.0548 0.175 0.161 0.244 0.248 0.0762 0.111 0.0888 0.265 0.198 0.353 0.109 0.0969 0.0505 0.248 0.0447 0.372 0.0201 0.131 0.0771 0.27 0.112 0.388 0.102 0.0613 0.154 0.177 0.247 0.247 0.148 0.103 0.296 0.228 0.354 0.409 0.0412 0.149 0.228 0.185 0.259 0.339 4e-3 0.0209 9e-3 0.0479 0.0272 0.0613" fill="#534c43"/>
  <path d="m-67.3-42.6c0.0315-0.119 0.15-0.25 0.197-0.363 0.0476-0.126-0.283-0.109-0.321-0.2-0.0413-0.0709-0.109-0.126-0.126-0.21-0.0175-0.0731-0.01-0.182-0.0994-0.205-0.0987-0.0377-0.207-0.0798-0.261-0.18 0.0115 0.0613 0.0884 0.125 0.138 0.175 0.0752 0.0556 0.144 0.145 0.109 0.245-0.0369 0.0897 0.0586 0.138 0.0948 0.206 0.0761 0.0585 0.196 0.157 0.234 0.23 0.074 0.0183 8e-3 0.0463-7e-3 0.144-0.0119 0.0637-0.0192 0.124 0.0425 0.158z" fill="#534c43"/>
  <path d="m-66-42.2c-0.0303-3.2e-4 0.0122 0.059 0.0563 0.0802 0.074 0.102 0.223 0.103 0.291 0.209 0.0403 0.119-0.0212 0.262 0.0692 0.367 0.0575 0.103 0.197 0.0995 0.25 0.208 0.0415 0.103 0.136 0.157 0.201 0.237 0.0421 0.112-0.0838 0.2-0.0764 0.312 0 0.0276 0.0158 0.044 0.0372 0.0539 0.106-0.159 0.194-0.333 0.271-0.511-0.0339-0.0577-0.0821-0.106-0.136-0.135-0.112-0.0285-0.204-0.109-0.242-0.217 0.0139-0.121-0.0148-0.24-0.152-0.244-0.106-0.0358-0.0704-0.205-0.199-0.211-0.121-0.01-0.211-0.103-0.326-0.132-0.0214-0.0115-0.0356-0.0163-0.0441-0.0164z" fill="#534c43"/>
  <path d="m-75.6-46.2c-0.879 0.399-1.34 1.27-1.65 2.14-0.487 0.998-1.39 1.72-2.42 2.04-0.392 0.207 0.727 0.205-0.755 0.989 1.34 0.137 2.04 0.673 1.17 1.57 1.51 0.698 2.78 0.072 2.61 1.4 1.86-0.314 1.77 0.253 2.44 0.287 0.746-0.0975 1.55 0.717 1.25-0.186-0.0917-0.899-0.941-1.19-1.44-1.78-0.696-0.711-1.89-0.897-2.05-2.06-0.406-0.781-0.426-1.78 0.395-2.27 0.55-0.562 0.207-1.42 0.459-2.14z" fill="#36312b"/>
  <path d="m-75.6-46.2c-0.224 0.693 0.0429 1.59-0.469 2.14-0.769 0.477-0.848 1.35-0.492 2.11 0.14 0.798 0.665 1.27 1.34 1.64 0.682 0.271 0.697 0.926 1.34 1.27 0.765 0.389 6e-3 0.451-0.355 1.29 1.42 0.243 1.83 0.52 2.2 0.891 1.1-0.252 0.983-1.06 1.58-1.73 0.483-0.491 0.742-1.18 0.988-1.82 0.125-0.852-1.11-0.813-1.52-1.35-0.718-0.498-0.601-1.6-1.28-2.1-0.89-0.365-1.98-0.485-2.55-1.39-0.228-0.34-0.587-0.568-0.781-0.935z" fill="#b6aa98"/>
  <path d="m-72.1-39.9c8e-3 0.5-0.129 1.5 0.315 1.85 0.239 0.26 0.088 0.825 0.494 0.917 0.354-0.318 0.447-0.776 0.746-1.21-0.0102-0.127-0.0206-0.255-0.031-0.382-0.105-0.303-1.14-0.11-0.89-1.14-1.42-1.11-0.875-0.352-0.635-0.0402z" fill="#36312b"/>
  <path d="m-74.5-40.9c-0.459-0.471-0.572-0.879-0.627-1.35-0.133-0.115-0.216-0.299-0.185-0.482 0.0187-0.151-0.0202-0.299-0.0379-0.447 0.0847 0.0791 0.253 0.233 0.352 0.357 0.11 0.161 0.128 0.382 0.285 0.509-0.104 0.619-0.0219 0.822 0.0343 0.986 0.141 0.286 0.336 0.333 0.413 0.578" fill="#36312b"/>
  <path d="m-71.3-41.1c-0.0437-3.4e-4 0.0175 0.0851 0.0812 0.116 0.107 0.148 0.322 0.149 0.419 0.301 0.0581 0.172-0.0306 0.378 0.0999 0.529 0.083 0.148 0.284 0.144 0.361 0.301 0.0599 0.148 0.196 0.226 0.291 0.342 0.0608 0.161-0.121 0.289-0.11 0.451 0 0.0398 0.0227 0.0635 0.0537 0.0778 0.153-0.229 0.279-0.48 0.392-0.737-0.049-0.0832-0.118-0.153-0.196-0.195-0.161-0.0411-0.295-0.157-0.349-0.314 0.0201-0.174-0.0214-0.346-0.22-0.352-0.152-0.0516-0.102-0.296-0.288-0.305-0.174-0.0144-0.304-0.148-0.47-0.191-0.0309-0.0167-0.0513-0.0235-0.0636-0.0236z" fill="#36312b"/>
  <path d="m-77.3-64.3c-0.367 0.146-0.327 0.578-0.211 0.882 0.0441 0.303-0.138 0.714 0.182 0.924 0.245 0.0437 0.486 0.132 0.665 0.32 0.173 0.155 0.414 0.302 0.649 0.196 0.354-0.0842 0.761-0.144 1.02-0.418-0.891-0.741-1.44-0.667-2.3-1.9z" fill="#383b2d"/>
  <path d="m-77.3-64.3c0.0362 0.351 0.342 0.638 0.469 0.953 0.107 0.386 0.437 0.717 0.768 0.916 0.338 0.0922 0.713 0.0774 1.06-0.0341 0.337-0.275-0.0994-0.79 0.0287-1.18 0.0168-0.505-0.588-0.598-0.845-0.945-0.333-0.35-0.809 0.0392-1.17 0.158-0.103 0.0468-0.207 0.0922-0.315 0.129z" fill="#8a916f"/>
  <path d="m-78-63.4c-0.296 0.118-0.264 0.467-0.171 0.712 0.0356 0.245-0.153 0.674 0.147 0.746 0.388 0.0936 0.607 0.516 1 0.432 0.275-0.0585 0.77-0.129 0.853-0.375-0.527-0.606-0.678-1.15-1.83-1.51z" fill="#383b2d"/>
  <path d="m-78-63.4c-0.124-0.058 0.134 0.239 0.203 0.357 0.0521 0.09 0.106 0.179 0.159 0.268 0.107 0.182 0.181 0.387 0.319 0.545 0.0615 0.0706 0.136 0.133 0.221 0.174 0.134 0.064 0.287 0.08 0.434 0.0995 0.167 0.0221 0.36 0.105 0.504 0.0192 0.0789-0.0472 0.107-0.157 0.121-0.248 0.0308-0.2-0.0978-0.398-0.0903-0.6 3e-3 -0.0857 0.0862-0.17 0.0571-0.251-0.042-0.116-0.194-0.153-0.294-0.226-0.0795-0.058-0.157-0.12-0.243-0.168-0.212-0.119-0.424-0.3-0.667-0.297-0.136 1e-3 -0.244 0.118-0.368 0.174-0.118 0.053-0.239 0.207-0.356 0.153z" fill="#8a916f"/>
  <path d="m-76.5-64.1c-0.146 0.0939-0.199 0.28-0.183 0.445 0.0165 0.166 0.069 0.341 0.199 0.454 0.136 0.122 0.317 0.181 0.495 0.207 0.162-0.0209 0.34-0.0237 0.477-0.126 0.0371-0.0291 0.114-0.101 0.0199-0.0965-0.113-0.0162-0.231-0.0105-0.341-0.0462-0.131-9e-3 -0.226-0.114-0.307-0.207-0.0434-0.047-0.081-0.0962-0.0935-0.16-0.063-0.165-0.195-0.289-0.274-0.446 2e-3 -9e-3 4e-3 -0.0172 7e-3 -0.0259z" fill="#383b2d"/>
  <ellipse cx="-71.7" cy="-64" rx="2.08" ry=".583" fill="#454837" style="paint-order:fill markers stroke"/>
  <path d="m-71.6-64.9c0.121 0.208-0.0529 0.55 0.231 0.662 0.2-0.041 0.407 1e-3 0.551 0.162 0.154 0.0756 0.337 0.198 0.0556 0.201-0.267 0.0624-0.524-0.146-0.784-0.0322-0.208 0.151-0.471 0.211-0.728 0.216-0.256-0.022-0.518-0.0531-0.752-0.165-0.211 0.0145-0.215-0.0861-0.0225-0.128 0.165-0.126 0.472-0.156 0.503-0.394-0.0568-0.272-0.0339-0.548 0.0267-0.819 0.517-2.39 0.815 0.0826 0.92 0.297z" fill="#383b2d"/>
  <path d="m-73.6-67.4c-0.261 0.104-0.233 0.411-0.15 0.627 0.0313 0.216-0.098 0.508 0.129 0.657 0.174 0.0311 0.346 0.0938 0.473 0.227 0.312-0.583-0.0726-1.21-0.452-1.51z" fill="#383b2d"/>
  <path d="m-73.6-67.4c-0.119 0.144 0.0698 0.36 0.131 0.485 0.0793 0.161 0.293 0.0835 0.284 0.232 1.04 1.31 2 0.448 0.601-0.954-0.135-0.131-0.324-0.0534-0.474 2.7e-4 -0.257 0.084-0.381 0.0406-0.543 0.237z" fill="#8a916f"/>
  <path d="m-73.8-66.5c-0.305 0.125-0.189 0.491-0.146 0.733-5e-3 0.543 0.399 0.789 0.843 0.924 0.266 0.0339 0.54-0.0833 0.785-0.184 0.181-0.0405 0.148-0.235-0.0305-0.168-0.736-0.631-0.818-0.425-1.45-1.3z" fill="#383b2d"/>
  <path d="m-74-66.2c0.0437 0.215 0.326-5e-3 0.442 0.179 0.134 0.212 0.0867 0.419 0.309 0.517 0.21 0.0923 0.279 0.449 0.571 0.362 0.142-0.0423 0.157-0.0672 0.341-0.0688 0.646-0.713-0.199-1.8-1.15-1.45-0.193 0.066-0.569 0.169-0.509 0.462z" fill="#8a916f"/>
  <path d="m-72.3-66.5c-0.259 0.104-0.231 0.411-0.149 0.627 0.0311 0.216-0.0973 0.508 0.128 0.657 0.173 0.0311 0.343 0.0938 0.47 0.227 0.122 0.11 0.292 0.215 0.458 0.139 0.25-0.0599 0.537-0.103 0.719-0.297-0.0469-0.0796-0.148-0.096-0.221-0.0309-0.0804 0.0636-0.15 0.0107-0.199-0.0565-0.117-0.0704-0.255 0.0958-0.362-0.0145-0.084-0.0807-0.117-0.23-0.253-0.24-0.15-0.0545-0.224-0.245-0.16-0.39-0.17-0.0134-0.228-0.208-0.226-0.353-0.135-3e-3 -0.236-0.136-0.205-0.268z" fill="#383b2d"/>
  <path d="m-71.9-65.5c0.14 0.119 0.257 0.268 0.417 0.357 0.168 0.0941 0.362 0.222 0.549 0.178 0.203-0.0476 0.392-0.202 0.448-0.438 0.0346-0.208 0.21-0.42 0.14-0.62-0.0725-0.206-0.267-0.465-0.513-0.408-0.552-0.183-1.38 0.174-1.04 0.931z" fill="#8a916f"/>
  <path d="m-72.8-67.1c-0.211 0.0838-0.188 0.332-0.121 0.506 0.0253 0.174-0.109 0.479 0.104 0.53 0.275 0.0665 0.432 0.366 0.712 0.307 0.195-0.0416 0.547-0.0917 0.606-0.267-0.374-0.43-0.482-0.821-1.3-1.08z" fill="#383b2d"/>
  <path d="m-72.3-67.8c-0.261 0.104-0.233 0.411-0.15 0.627 0.0313 0.216-0.0979 0.508 0.129 0.657 0.174 0.0311 0.346 0.0938 0.473 0.227 0.123 0.11 0.294 0.215 0.461 0.139 0.252-0.0599 0.541-0.103 0.723-0.297-0.633-0.526-1.03-0.474-1.64-1.35z" fill="#383b2d"/>
  <path d="m-72.8-67.1c-0.0881-0.0412 0.0952 0.17 0.144 0.254 0.037 0.0639 0.0754 0.127 0.113 0.191 0.0759 0.129 0.128 0.275 0.227 0.388 0.0437 0.0502 0.0969 0.0948 0.157 0.123 0.0952 0.0455 0.204 0.0568 0.309 0.0707 0.118 0.0157 0.256 0.0749 0.358 0.0136 0.0561-0.0335 0.0763-0.112 0.0862-0.176 0.0219-0.142-0.0695-0.283-0.0642-0.426 2e-3 -0.0609 0.0613-0.121 0.0406-0.178-0.0298-0.0827-0.138-0.109-0.209-0.16-0.0565-0.0412-0.111-0.0851-0.172-0.119-0.151-0.0849-0.301-0.213-0.474-0.211-0.0963 1e-3 -0.173 0.0838-0.261 0.123-0.0836 0.0377-0.17 0.147-0.253 0.109z" fill="#8a916f"/>
  <path d="m-72.3-67.8c0.0257 0.25 0.243 0.454 0.333 0.677 0.0763 0.274 0.311 0.51 0.545 0.651 0.24 0.0655 0.507 0.055 0.754-0.0243 0.239-0.195-0.0706-0.561 0.0204-0.836 0.0119-0.359-0.418-0.425-0.601-0.672-0.237-0.249-0.575 0.0278-0.829 0.112-0.0734 0.0333-0.147 0.0655-0.224 0.0917z" fill="#8a916f"/>
  <path d="m-71.7-67.6c-0.104 0.0667-0.142 0.199-0.13 0.316 0.0118 0.118 0.049 0.243 0.142 0.323 0.0969 0.0866 0.225 0.129 0.352 0.147 0.115-0.0149 0.242-0.0169 0.339-0.0892 0.0264-0.0207 0.0808-0.0718 0.0141-0.0686-0.0806-0.0115-0.164-7e-3 -0.242-0.0328-0.0932-6e-3 -0.161-0.081-0.218-0.147-0.0309-0.0334-0.0576-0.0683-0.0665-0.114-0.0447-0.117-0.139-0.206-0.195-0.317 2e-3 -6e-3 3e-3 -0.0123 5e-3 -0.0184z" fill="#383b2d"/>
  <path d="m-35.4-60.7s-2e-3 -0.818 0.333-0.87" fill="none" stroke="#757551" stroke-linecap="round" stroke-width=".1"/>
  <path d="m-33.8-59.9s-1e-3 -0.702 0.191-0.746" fill="none" stroke="#939366" stroke-linecap="round" stroke-width=".1"/>
  <path d="m-41.3-62.1c-1.05 0.525-3.1 1.1-3.74 0.119-0.564-0.863-2.16-0.0147-2.36-0.891-0.236-1.06 1.89-0.946 2.83-1.09 1.42-0.223 3.1-0.575 4.36 0.22 1.32 0.83-0.429 1.31-1.09 1.65z" fill="#a8a773"/>
  <path d="m-42.2-63.8c-0.217 0.0607-0.316 0.0615-0.533 0 0-0.148 0.119-0.268 0.266-0.268s0.266 0.12 0.266 0.268z" fill="#7e7d57" stroke-linecap="round" stroke-linejoin="round" stroke-width=".5" style="paint-order:stroke fill markers"/>
  <path d="m-40.8-63.2c-0.368 0.0915-0.536 0.0926-0.905 0 0-0.223 0.202-0.404 0.452-0.404 0.25 0 0.452 0.181 0.452 0.404z" fill="#7e7d57" stroke-linecap="round" stroke-linejoin="round" stroke-width=".5" style="paint-order:stroke fill markers"/>
  <path d="m-45.6-63.1c-0.268 0.0758-0.39 0.0767-0.657 0 0-0.185 0.147-0.335 0.328-0.335 0.181 0 0.328 0.15 0.328 0.335z" fill="#7e7d57" stroke-linecap="round" stroke-linejoin="round" stroke-width=".5" style="paint-order:stroke fill markers"/>
  <path d="m-43.6-63.4c-0.268 0.0758-0.39 0.0767-0.657 0 0-0.185 0.147-0.335 0.328-0.335 0.181 0 0.328 0.15 0.328 0.335z" fill="#7e7d57" stroke-linecap="round" stroke-linejoin="round" stroke-width=".5" style="paint-order:stroke fill markers"/>
  <path d="m-42.5-62.1c-0.638 0.156-0.928 0.158-1.57 0 0-0.38 0.35-0.688 0.783-0.688s0.783 0.308 0.783 0.688z" fill="#7e7d57" stroke-linecap="round" stroke-linejoin="round" stroke-width=".5" style="paint-order:stroke fill markers"/>
  <path d="m-44.2-62.8c-0.391 0.0888-0.569 0.0899-0.96 0 0-0.217 0.215-0.392 0.48-0.392s0.48 0.176 0.48 0.392z" fill="#7e7d57" stroke-linecap="round" stroke-linejoin="round" stroke-width=".5" style="paint-order:stroke fill markers"/>
  <path d="m-44.3-61.8s2e-3 -0.731-0.299-0.777" fill="none" stroke="#757551" stroke-linecap="round" stroke-width=".1"/>
  <path d="m-42.3-62s-3e-3 -0.835 0.434-0.888" fill="none" stroke="#757551" stroke-linecap="round" stroke-width=".1"/>
  <path d="m-42.3-63.1c-0.321 0.0924-0.468 0.0935-0.788 0 0-0.225 0.176-0.408 0.394-0.408s0.394 0.183 0.394 0.408z" fill="#7e7d57" stroke-linecap="round" stroke-linejoin="round" stroke-width=".5" style="paint-order:stroke fill markers"/>
  <path d="m-41.3-63.9s-2e-3 -0.609 0.248-0.648" fill="none" stroke="#757551" stroke-linecap="round" stroke-width=".1"/>
  <path d="m-40.1-63.3s-1e-3 -0.523 0.143-0.556" fill="none" stroke="#939366" stroke-linecap="round" stroke-width=".1"/>
  <path d="m-46.5-63.3s1e-3 -0.523-0.173-0.556" fill="none" stroke="#939366" stroke-linecap="round" stroke-width=".1"/>
  <path d="m-45.5-63.4s-3e-3 -0.746 0.379-0.794" fill="none" stroke="#939366" stroke-linecap="round" stroke-width=".1"/>
  <path d="m-33.8-63.7c-0.763 0.38-2.24 0.799-2.71 0.0861-0.408-0.625-1.57-0.0106-1.71-0.645-0.171-0.765 1.37-0.685 2.05-0.792 1.03-0.162 2.24-0.416 3.16 0.159 0.957 0.601-0.311 0.952-0.793 1.19z" fill="#a8a773"/>
  <path d="m-34.4-64.9c-0.157 0.044-0.229 0.0445-0.386 0 0-0.107 0.0864-0.194 0.193-0.194 0.107 0 0.193 0.0869 0.193 0.194z" fill="#7e7d57" stroke-linecap="round" stroke-linejoin="round" stroke-width=".5" style="paint-order:stroke fill markers"/>
  <path d="m-33.4-64.4c-0.267 0.0663-0.389 0.0671-0.655 0 0-0.162 0.147-0.293 0.328-0.293s0.328 0.131 0.328 0.293z" fill="#7e7d57" stroke-linecap="round" stroke-linejoin="round" stroke-width=".5" style="paint-order:stroke fill markers"/>
  <path d="m-36.9-64.4c-0.194 0.0549-0.282 0.0556-0.476 0 0-0.134 0.107-0.242 0.238-0.242 0.131 0 0.238 0.109 0.238 0.242z" fill="#7e7d57" stroke-linecap="round" stroke-linejoin="round" stroke-width=".5" style="paint-order:stroke fill markers"/>
  <path d="m-35.5-64.6c-0.194 0.0549-0.282 0.0556-0.476 0 0-0.134 0.107-0.242 0.238-0.242 0.131 0 0.238 0.109 0.238 0.242z" fill="#7e7d57" stroke-linecap="round" stroke-linejoin="round" stroke-width=".5" style="paint-order:stroke fill markers"/>
  <path d="m-35.9-64.2c-0.283 0.0643-0.412 0.0651-0.695 0 0-0.157 0.156-0.284 0.348-0.284s0.348 0.127 0.348 0.284z" fill="#7e7d57" stroke-linecap="round" stroke-linejoin="round" stroke-width=".5" style="paint-order:stroke fill markers"/>
  <path d="m-34.6-63.6c-0.462 0.113-0.672 0.114-1.13 0 0-0.275 0.254-0.498 0.567-0.498 0.313 0 0.567 0.223 0.567 0.498z" fill="#7e7d57" stroke-linecap="round" stroke-linejoin="round" stroke-width=".5" style="paint-order:stroke fill markers"/>
  <path d="m-34.5-64.4c-0.233 0.0669-0.339 0.0677-0.571 0 0-0.163 0.128-0.295 0.286-0.295s0.286 0.132 0.286 0.295z" fill="#7e7d57" stroke-linecap="round" stroke-linejoin="round" stroke-width=".5" style="paint-order:stroke fill markers"/>
  <path d="m-35.9-63.4s2e-3 -0.529-0.217-0.563" fill="none" stroke="#757551" stroke-linecap="round" stroke-width=".1"/>
  <path d="m-33.8-65s-1e-3 -0.441 0.18-0.469" fill="none" stroke="#757551" stroke-linecap="round" stroke-width=".1"/>
  <path d="m-34.5-63.6s-2e-3 -0.605 0.314-0.643" fill="none" stroke="#757551" stroke-linecap="round" stroke-width=".1"/>
  <path d="m-32.9-64.5s-7.6e-4 -0.379 0.103-0.402" fill="none" stroke="#939366" stroke-linecap="round" stroke-width=".1"/>
  <path d="m-37.5-64.5s9.5e-4 -0.379-0.126-0.402" fill="none" stroke="#939366" stroke-linecap="round" stroke-width=".1"/>
  <path d="m-36.8-64.6s-2e-3 -0.541 0.274-0.575" fill="none" stroke="#939366" stroke-linecap="round" stroke-width=".1"/>
  <ellipse cx="-37.7" cy="-41.7" rx="1.34" ry=".419" fill="#2f3829" style="paint-order:stroke fill markers"/>
  <path d="m-36.7-47.8c-0.36 8e-3 -0.408 0.2-0.189 0.499-0.663-0.673-1.34-0.277-1.74 0.388-0.172 0.0839-0.331 0.185-0.472 0.302-0.154 0.235-0.317 0.443-0.488 0.623-0.0641 0.139-0.11 0.289-0.133 0.45-0.123-0.0218-0.244-0.0261-0.363-0.0155-2e-4 1.37e-4 -3.2e-4 3.8e-4 -5.1e-4 5.17e-4 -0.246 0.168-0.499 0.261-0.76 0.282-0.114 0.0758-0.222 0.165-0.325 0.264-0.19-0.148-0.408-0.275-0.645-0.379-0.0282-0.0424-0.0575-0.0838-0.0879-0.124-0.332-0.156-0.62-0.376-0.865-0.661-0.391-0.123-0.827-0.0504-1.26 0.342 0.278-0.341 0.216-0.559-0.242-0.568-0.385 0.0583-0.387 0.222-0.279 0.391-0.219-0.174-0.436-0.236-0.643-0.216 0.384 0.448 0.809 0.848 1.28 1.2 0.16 0.117 0.322 0.225 0.483 0.329-0.14-0.295-0.341-0.484-0.575-0.737 0.461 0.274 1.49 0.552 2.32 0.963 3e-3 0.0052 6e-3 0.0108 9e-3 0.016-0.225 0.105-0.436 0.227-0.627 0.366 0.453 0.185 0.897-0.21 1.33-0.133 0.012 0.0018 0.0232 0.0019 0.0351 0.0036 0.0752-0.0303 0.15-0.0602 0.225-0.0894 0.0334 0.0402 0.0635 0.0814 0.091 0.124 0.0735 0.0049 0.144 0.0044 0.215 0.0052-6e-3 -0.0803-0.0155-0.159-0.031-0.235 0.647-0.245 1.24 0.0738 1.59-0.134-0.251 0.276-0.472-0.037-0.641 0.255 0.631-0.168 1.26 0.0513 1.89-0.405 0.271-0.2 0.528-0.418 0.774-0.652-0.0603-0.0412-0.122-0.0776-0.185-0.107 0.168-0.386 0.318-0.701 0.328-1.19 0.0616 0.353 0.23 0.54 0.426 0.705 0.14-0.162 0.275-0.33 0.405-0.505-0.04-0.0482-0.0813-0.0948-0.125-0.14 0.0534 0.0282 0.109 0.0577 0.164 0.0873 3.7e-4 -5.02e-4 6.7e-4 -1e-3 1e-3 -0.0015 0.162-0.222 0.312-0.451 0.452-0.685-0.299-0.432-0.713-0.641-1.13-0.269 0.0845-0.148 0.0829-0.292-0.219-0.343zm-0.689 1.09c-0.284 0.416-0.514 0.816-0.695 1.2-0.01-0.12-0.124-0.22-0.427-0.266-0.576 0.0118-0.653 0.29-0.304 0.725-0.232-0.214-0.466-0.354-0.695-0.431 0.132-0.186 0.327-0.348 0.552-0.492-0.0141 0.104-0.0207 0.207-0.0181 0.306 0.098-0.152 0.182-0.304 0.259-0.449 0.436-0.238 0.935-0.424 1.33-0.593zm-0.12 1.14c-2.5e-4 0.0041-7.8e-4 0.0077-1e-3 0.0119-2e-3 1.29e-4 -4e-3 3.76e-4 -6e-3 5.16e-4 2e-3 -0.0041 5e-3 -0.0083 7e-3 -0.0124zm-9.62 0.788c0 0.137-0.0799 0.267-0.1 0.412 0.0888-0.0016 0.176-0.0028 0.268-0.0052 0.039-0.0534 0.0819-0.105 0.128-0.155-0.106-0.0827-0.296-0.377-0.296-0.252z" fill="#333" stroke="#333" stroke-linecap="square" stroke-linejoin="round" stroke-width="1.06" style="paint-order:stroke fill markers;white-space:pre"/>
  <path d="m-37.1-47.1c0.166-0.0855 0.376-0.128 0.49 0-2.6 4.05-0.964 3.6-1.27 5.36-0.178 0.0462-0.327 0.0301-0.49 0-0.553-1.2-0.464-3.07 1.27-5.36z" fill="#34452c" stroke-linecap="round" stroke-linejoin="round" stroke-width=".5" style="paint-order:stroke fill markers"/>
  <path d="m-36.7-47.8c-0.36 8e-3 -0.408 0.2-0.189 0.499-0.663-0.673-1.34-0.277-1.74 0.387-0.767 0.374-1.28 1.09-1.06 2.09-0.0563-0.489 0.273-0.855 0.731-1.15-0.0141 0.104-0.0205 0.207-0.0179 0.306 0.098-0.152 0.182-0.304 0.26-0.449 0.651-0.355 1.45-0.596 1.81-0.835-0.465 0.562-0.77 0.763-0.526 3.03 0.182-1.48 0.74-1.76 0.759-2.73 0.181 1.04 1.28 0.643 1.31 2.46 0.245-0.987-0.0587-1.83-0.604-2.39 0.283 0.15 0.603 0.317 0.881 0.522 0.0549 0.128 0.116 0.262 0.188 0.397 2e-3 -0.0828-2e-3 -0.168-0.01-0.254 0.326 0.284 0.552 0.636 0.51 1.1 0.165-0.966-0.205-1.66-0.772-2.05-0.297-0.627-0.8-1.03-1.31-0.582 0.0845-0.148 0.083-0.291-0.219-0.343z" fill="#698e58"/>
  <ellipse cx="-42.8" cy="-39.7" rx="2.14" ry=".697" fill="#2f3829" style="paint-order:stroke fill markers"/>
  <ellipse cx="-39.6" cy="-37.1" rx="3.09" ry=".814" fill="#2f3829" style="paint-order:stroke fill markers"/>
  <path d="m-39.1-44.8c0.266-0.124 0.602-0.187 0.785 0-4.17 5.89-1.54 5.24-2.04 7.8-0.285 0.0672-0.523 0.0438-0.785 0-0.886-1.75-0.744-4.46 2.04-7.8z" fill="#34452c" stroke-linecap="round" stroke-linejoin="round" stroke-width=".5" style="paint-order:stroke fill markers"/>
  <path d="m-43.8-45.6c-0.212-0.0976-0.478-0.147-0.624 0 3.32 4.62 1.23 4.11 1.62 6.12 0.227 0.0527 0.416 0.0344 0.624 0 0.704-1.37 0.592-3.5-1.62-6.12z" fill="#34452c" stroke-linecap="round" stroke-linejoin="round" stroke-width=".5" style="paint-order:stroke fill markers"/>
  <path d="m-44.3-46.4c-0.385 0.0583-0.387 0.222-0.279 0.391-0.651-0.518-1.29-0.0515-1.67 0.664-0.722 0.438-1.19 1.24-0.983 2.34-0.0528-0.526 0.235-0.928 0.65-1.25-0.0101 0.0989-0.0148 0.197-0.0125 0.291 0.0943-0.158 0.175-0.313 0.251-0.461 0.351-0.231 0.754-0.42 1.11-0.589-0.695 0.645-1.08 1.61-0.77 2.74 0.0357-2.07 1.44-1.62 1.67-2.8 0.0246 1.11 0.735 1.43 0.967 3.11 0.311-2.59-0.0775-2.82-0.67-3.46 0.461 0.274 1.49 0.553 2.32 0.963 0.0888 0.162 0.188 0.332 0.311 0.503 3e-3 -0.113-5e-3 -0.231-0.023-0.35 0.583 0.335 1 0.753 0.932 1.31 0.278-1.14-0.376-1.96-1.35-2.38-0.505-0.759-1.37-1.21-2.21-0.444 0.278-0.341 0.216-0.559-0.242-0.568z" fill="#698e58"/>
  <path d="m-38.6-45.7c-0.576 0.0118-0.653 0.29-0.304 0.725-1.06-0.979-2.15-0.402-2.78 0.566-1.23 0.544-2.05 1.58-1.7 3.04-0.0901-0.711 0.438-1.24 1.17-1.67-0.0226 0.152-0.033 0.301-0.0288 0.446 0.154-0.218 0.279-0.434 0.39-0.64 1.05-0.524 2.34-0.878 2.92-1.23-0.744 0.818-1.23 1.11-0.842 4.41 0.292-2.15 1.18-2.56 1.22-3.97 0.291 1.51 2.05 0.936 2.1 3.57 0.392-1.44-0.094-2.66-0.968-3.49 0.441 0.212 0.938 0.448 1.37 0.735 0.107 0.194 0.217 0.397 0.338 0.603 3e-3 -0.12-3e-3 -0.245-0.0155-0.37 0.521 0.414 0.883 0.926 0.816 1.6 0.264-1.41-0.328-2.42-1.23-2.98-0.476-0.913-1.28-1.51-2.1-0.846 0.136-0.215 0.134-0.425-0.35-0.499z" fill="#698e58"/>
  <g transform="matrix(.118 0 0 .0999 -46.4 -51.5)" fill="#e1a300" stroke-linejoin="round" stroke-width="17.5" style="font-variation-settings:'wght' 700;paint-order:stroke fill markers;shape-inside:url(#rect53925-6-8-8);white-space:pre" aria-label="nd">
   <path d="m-166 105c-1.41 0.08-2.8 0.241-4.16 0.481-1.36 0.24-2.61 0.572-3.76 0.999l0.157 2 3 0.538v5.81c-0.721-0.149-1.46-0.228-2.24-0.228-1.71 0-3.23 0.293-4.56 0.88-1.31 0.56-2.41 1.33-3.32 2.32-0.907 0.987-1.6 2.11-2.08 3.36-0.453 1.25-0.678 2.57-0.678 3.96 0 1.79 0.36 3.44 1.08 4.96s1.75 2.75 3.08 3.68c1.33 0.933 2.92 1.39 4.76 1.36l4.57-3.41c0.291 0.678 0.661 1.28 1.11 1.81 0.48 0.507 0.984 0.892 1.52 1.16 0.56 0.293 1.11 0.44 1.64 0.44l5.32-2.92-0.241-1.76c-0.427 0.0267-0.799 0.0561-1.12 0.0828-0.293 0.0267-0.603 0.0414-0.923 0.0414-0.293 0-0.53-0.0928-0.717-0.279-0.187-0.187-0.28-0.416-0.28-0.683v-22.6l-2.16-2zm-35.1 9.56c-1.41 0.0267-2.8 0.173-4.16 0.44-1.36 0.24-2.62 0.587-3.8 1.04l0.197 1.92 3 0.564v13.2c-0.175 0.0586-0.339 0.107-0.52 0.171-0.88 0.32-1.69 0.711-2.44 1.16l0.0831 1.4h4.48 5.32 2.2l0.0787-1.96c-0.696-0.489-1.46-0.897-2.28-1.24v-11.2c0.159-0.0759 0.317-0.16 0.477-0.228 0.693-0.32 1.34-0.496 1.92-0.523 0.88-0.0267 1.55 0.281 2 0.921 0.48 0.64 0.722 1.57 0.722 2.8v11.4h6.92 2.76l0.122-1.96c-0.747-0.507-1.64-0.932-2.68-1.28-0.0696-0.0256-0.132-0.0424-0.201-0.0673v-8.53c0-1.12-0.0127-2-0.0394-2.64-0.0267-0.667-0.0818-1.18-0.162-1.56-0.0533-0.373-0.147-0.666-0.28-0.88-0.453-0.747-1.03-1.32-1.72-1.72-0.667-0.427-1.35-0.72-2.04-0.88-0.667-0.187-1.25-0.279-1.76-0.279-0.96 0.32-2 0.789-3.12 1.4-0.953 0.511-1.92 1.15-2.92 1.9v-1.27l-2.16-2.16zm26.9 3.68c0.933-0.0267 1.81 0.105 2.64 0.398 0.276 0.0862 0.541 0.189 0.8 0.3v10.8c-0.642 0.204-1.23 0.336-1.72 0.336-0.853 0-1.57-0.254-2.16-0.761-0.587-0.533-1.04-1.23-1.36-2.08-0.293-0.853-0.442-1.8-0.442-2.84 0-1.17 0.186-2.32 0.56-3.44 0.4-1.12 0.964-2.03 1.68-2.72z" stroke="#333"/>
  </g>
  <g transform="matrix(.184 0 0 .168 -37.4 -59.6)" fill="#e1a300" stroke="#333" stroke-linejoin="round" stroke-width="10.8" style="paint-order:stroke fill markers;shape-inside:url(#rect53925-6-0-3-9);white-space:pre" aria-label="2     Edition">
   <path d="m-207 139-0.84-3.6 6.76-7.28q2.08-2.24 3.32-3.8t1.76-2.76 0.52-2.2q0-0.96-0.48-1.76-0.44-0.84-1.36-1.36-0.88-0.52-2.32-0.52-0.64 0-1.52 0.16t-1.76 0.48l-4.36-1.48q2.12-1.24 4.72-2t4.92-0.68q2.8 0 4.84 1.08 2.08 1.08 3.24 2.88 1.16 1.76 1.16 4 0 1.52-0.68 3.04-0.64 1.48-2 3.2-1.32 1.68-3.48 3.84l-5.32 5.36 0.12 0.28 10.7-1.76v4.88zm18.6 0-7.08-0.64 5.4-8.4 3.08 0.76q-0.08 1.76-0.44 3.96-0.32 2.2-0.96 4.32zm-13.8-16.2h-4.36q-0.2-0.72-0.36-1.76-0.16-1.08-0.28-2.16-0.08-1.12-0.12-2.16-0.04-1.08 0.04-1.84l7.24 0.24z" style="font-variation-settings:'wght' 700"/>
   <path d="m-77.4 109c-0.8 0.587-1.53 1.29-2.2 2.12-0.667 0.8-1.25 1.69-1.76 2.68 0.613 0.72 1.33 1.41 2.16 2.08 0.827 0.64 1.69 1.16 2.6 1.56 0.773-0.533 1.48-1.17 2.12-1.92 0.64-0.773 1.17-1.59 1.6-2.44-0.56-0.8-1.23-1.56-2-2.28-0.773-0.747-1.61-1.35-2.52-1.8zm29.9 0c-0.8 0.587-1.53 1.29-2.2 2.12-0.667 0.8-1.25 1.69-1.76 2.68 0.613 0.72 1.33 1.41 2.16 2.08 0.827 0.64 1.69 1.16 2.6 1.56 0.773-0.533 1.48-1.17 2.12-1.92 0.64-0.773 1.17-1.59 1.6-2.44-0.56-0.8-1.23-1.56-2-2.28-0.773-0.747-1.61-1.35-2.52-1.8zm-41.2 0.999c-1.41 0.08-2.8 0.24-4.16 0.48-1.36 0.24-2.62 0.573-3.76 0.999l0.16 2 3 0.538v5.81c-0.721-0.149-1.47-0.231-2.24-0.231-1.71 0-3.23 0.293-4.56 0.879-1.31 0.56-2.41 1.33-3.32 2.32-0.907 0.987-1.6 2.11-2.08 3.36-0.453 1.25-0.682 2.57-0.682 3.96 0 1.79 0.361 3.44 1.08 4.96s1.75 2.75 3.08 3.68c1.33 0.933 2.92 1.39 4.76 1.36l4.58-3.41c0.291 0.679 0.658 1.28 1.1 1.81 0.48 0.507 0.986 0.892 1.52 1.16 0.56 0.293 1.11 0.44 1.64 0.44l5.32-2.92-0.239-1.76c-0.427 0.0267-0.8 0.0533-1.12 0.0799-0.293 0.0267-0.601 0.04-0.921 0.04-0.293 0-0.535-0.0931-0.722-0.28-0.187-0.187-0.278-0.416-0.278-0.683v-22.6l-2.16-2zm-42 3-0.0393 2.12 3 0.443v20.8c-0.519 0.226-1.03 0.461-1.52 0.716-0.667 0.347-1.29 0.732-1.88 1.16l0.241 1.28h3.76 6.64 11.6v-0.00307l0.0393 0.00307c0.107-0.8 0.201-1.69 0.281-2.68 0.08-1.01 0.133-2.01 0.16-3 0.0533-1.01 0.066-1.89 0.0393-2.64l-4-0.32-1.43 4.41-6.73 0.529v-7.85l8.36 0.347v-4.32l-8.36 0.695v-8.11l6.47 0.44 0.733 4.1h4c0.213-0.907 0.373-1.87 0.48-2.88 0.107-1.04 0.188-2.03 0.241-2.96s0.0533-1.68 0-2.24h-11.9-5.32-4.88zm66.3 2.2-2.16 5.34c-0.0805 0.0476-0.165 0.0936-0.244 0.141-1.17 0.693-2.24 1.42-3.2 2.2l0.121 2.16 2.96-0.0154v10.8c0 0.8 0.254 1.53 0.761 2.2 0.533 0.667 1.2 1.19 2 1.56 0.8 0.4 1.64 0.586 2.52 0.56l6.6-3.36-0.278-2.08c-0.48 0.08-1.01 0.16-1.6 0.24-0.587 0.08-1.12 0.12-1.6 0.12-0.507 0-0.88-0.12-1.12-0.36-0.24-0.267-0.359-0.722-0.359-1.36v-8.24h3.28l2-2.52-0.0393-2h-5.45l-0.988-5.36h-3.2zm34.7 4.28c-1.73 0-3.37 0.399-4.92 1.2-1.52 0.8-2.76 1.96-3.72 3.48-0.933 1.52-1.4 3.39-1.4 5.6s0.48 4.11 1.44 5.68c0.987 1.57 2.25 2.77 3.8 3.6 1.55 0.827 3.2 1.24 4.96 1.24 1.76 0 3.37-0.399 4.84-1.2 1.49-0.8 2.69-1.96 3.6-3.48 0.907-1.55 1.36-3.43 1.36-5.64 0-2.27-0.468-4.17-1.4-5.72-0.933-1.57-2.16-2.76-3.68-3.56-1.52-0.8-3.15-1.2-4.88-1.2zm-46 0.0799c-1.41 0.0267-2.8 0.173-4.16 0.44-1.36 0.24-2.63 0.586-3.8 1.04l0.199 1.92 3 0.566v13.2c-0.201 0.0668-0.391 0.126-0.601 0.2-0.88 0.32-1.69 0.706-2.44 1.16l0.0814 1.4h4.48 5.4 2.8l0.0786-1.96c-0.747-0.507-1.63-0.932-2.64-1.28-0.0835-0.0308-0.156-0.0533-0.239-0.083v-14.7l-2.16-1.92zm29.9 0c-1.41 0.0267-2.8 0.173-4.16 0.44-1.36 0.24-2.63 0.586-3.8 1.04l0.199 1.92 3 0.566v13.2c-0.201 0.0668-0.391 0.126-0.601 0.2-0.88 0.32-1.69 0.706-2.44 1.16l0.0786 1.4h4.48 5.4 2.8l0.0786-1.96c-0.747-0.507-1.63-0.932-2.64-1.28-0.0842-0.031-0.158-0.0531-0.241-0.083v-14.7l-2.16-1.92zm34.9 0c-1.41 0.0267-2.8 0.173-4.16 0.44-1.36 0.24-2.63 0.586-3.8 1.04l0.199 1.92 3 0.566v13.2c-0.175 0.0586-0.338 0.108-0.519 0.172-0.88 0.32-1.69 0.706-2.44 1.16l0.0814 1.4h4.48 5.32 2.2l0.0786-1.96c-0.697-0.491-1.46-0.904-2.28-1.25v-11.2c0.16-0.0763 0.32-0.147 0.48-0.215 0.693-0.32 1.33-0.493 1.92-0.52 0.88-0.0267 1.55 0.279 2 0.919 0.48 0.64 0.722 1.57 0.722 2.8v11.4h6.92 2.76l0.118-1.96c-0.747-0.507-1.64-0.932-2.68-1.28-0.0691-0.0255-0.131-0.0429-0.199-0.0676v-8.53c0-1.12-0.0154-2-0.0421-2.64-0.0267-0.667-0.08-1.19-0.16-1.56-0.0533-0.373-0.145-0.669-0.278-0.882-0.453-0.747-1.03-1.32-1.72-1.72-0.667-0.427-1.35-0.719-2.04-0.879-0.667-0.187-1.25-0.28-1.76-0.28-0.96 0.32-2 0.786-3.12 1.4-0.953 0.511-1.93 1.15-2.92 1.91v-1.27l-2.16-2.16zm-86.1 3.68c0.933-0.0267 1.81 0.106 2.64 0.4 0.276 0.0861 0.541 0.187 0.8 0.298v10.8c-0.65 0.208-1.23 0.317-1.72 0.317-0.853 0-1.57-0.256-2.16-0.762-0.587-0.533-1.04-1.22-1.36-2.08-0.293-0.853-0.441-1.8-0.441-2.84 0-1.17 0.185-2.32 0.559-3.44 0.4-1.12 0.962-2.02 1.68-2.72zm67 0.0799c0.8 0 1.43 0.333 1.88 0.999 0.48 0.64 0.825 1.49 1.04 2.56 0.213 1.04 0.32 2.21 0.32 3.52 0 0.88-0.0534 1.73-0.16 2.56-0.08 0.827-0.225 1.55-0.438 2.16-0.213 0.613-0.508 1.07-0.882 1.36-0.4 0.133-0.774 0.2-1.12 0.2-0.8 0-1.45-0.306-1.96-0.919-0.48-0.613-0.838-1.44-1.08-2.48s-0.362-2.19-0.362-3.44c0-1.33 0.0941-2.53 0.281-3.6 0.213-1.09 0.521-1.92 0.921-2.48 0.187-0.133 0.413-0.24 0.679-0.32 0.293-0.08 0.585-0.12 0.879-0.12z" style="font-variation-settings:'wght' 700"/>
  </g>
  <rect x="-71.1" y="-37.4" width="6" height=".459" rx=".189" ry=".168" fill="#e1a300" stroke="#333" stroke-linecap="round" stroke-linejoin="round" stroke-width="1.06" style="paint-order:stroke fill markers"/>
  <path d="m-72.4-40.9c-0.0803-0.167-0.333-0.105-0.397-0.284-3e-3 -0.167-0.165-0.251-0.3-0.294-0.121-0.0489-0.244-0.0917-0.374-0.106-0.115-0.0122-0.206-0.0874-0.273-0.179-0.109-0.098-0.274-0.19-0.259-0.362 0.0306-0.253-0.023-0.502-0.0508-0.752 0-0.161 0.053-0.357-0.134-0.436-0.133-0.115-0.216-0.299-0.185-0.482 0.0187-0.151-0.0202-0.299-0.0379-0.447 0.0847 0.0791 0.253 0.233 0.352 0.357 0.11 0.161 0.128 0.382 0.285 0.509 0.157 0.14 0.0729 0.358 0.0646 0.538 0.029 0.189 0.111 0.389 0.161 0.56 0.146 0.0885 0.223 0.256 0.356 0.356 0.213 0.149 0.428 0.329 0.511 0.59 0.0595 0.214 0.328 0.267 0.374 0.49 6e-3 0.0301 0.0133 0.0692 0.0392 0.0885" fill="#36312b"/>
  <path d="m-72.5-42.2c0.0455-0.171-9e-3 -0.361 0.0595-0.524 0.0686-0.182-0.184-0.157-0.239-0.288-0.0596-0.102-0.157-0.181-0.182-0.303-0.0253-0.105-0.0142-0.262-0.143-0.296-0.142-0.0544-0.298-0.115-0.377-0.259 0.0165 0.0884 0.128 0.181 0.199 0.252 0.108 0.0803 0.208 0.209 0.157 0.354-0.0532 0.129 0.0845 0.199 0.137 0.298 0.11 0.0845 0.0583 0.226 0.113 0.331 0.107 0.0264 0.232 0.0793 0.21 0.22-0.0172 0.092-0.0232 0.166 0.0659 0.216z" fill="#36312b"/>
 </g>
</svg>
