<!DOCTYPE svg PUBLIC "-//W3C//DTD SVG 20010904//EN" "http://www.w3.org/TR/2001/REC-SVG-20010904/DTD/svg10.dtd">
<svg xmlns="http://www.w3.org/2000/svg" version="1.1" baseProfile="full" width="300" height="200" id="canvas"
  viewBox="-20 -20 40 40">
  <g>
    <g transform="rotate(60, 0,0)">
      <g transform="translate(12)">
        <g transform="rotate(-60, 0,0)"> <a class="test">
            <g opacity="1" transform="scale(0.9618527719784453)">
              <circle cx="-8.0776e-10" cy="2.1588e-9" r="5.538" fill="#000" fill-opacity=".28921"
                style="paint-order: fill markers;"></circle>
              <circle cx="-8.0776e-10" cy="2.1588e-9" r="4.7411" fill="#d1d1d1" style="paint-order: fill markers;">
              </circle>
              <path
                d="m-0.938-2.41-0.0737 0.146h-0.983c-0.181 0-0.328 0.146-0.328 0.328 0 0.181 0.146 0.328 0.328 0.328h3.93c0.181 0 0.328-0.146 0.328-0.328 0-0.181-0.146-0.328-0.328-0.328h-0.983l-0.0737-0.146c-0.0553-0.112-0.169-0.181-0.293-0.181h-1.23c-0.124 0-0.238 0.0696-0.293 0.181zm2.88 1.13h-3.93l0.217 3.47c0.0164 0.259 0.231 0.461 0.491 0.461h2.52c0.259 0 0.474-0.202 0.491-0.461z"
                stroke-width=".198" />
              <path
                d="m0.049757-4.5469a4.5948 4.5948 0 0 0-4.5948 4.5948 4.5948 4.5948 0 0 0 2.1786 3.9046 4.5948 4.5948 0 0 1-1.9714-3.7706 4.5948 4.5948 0 0 1 4.5948-4.5948 4.5948 4.5948 0 0 1 2.3904 0.67114 4.5948 4.5948 0 0 0-2.5976-0.80512z"
                fill="#fff" style="paint-Terrainorder: fill markers;"></path>
              <path
                d="m-0.057583 4.5765a4.5948 4.5948 0 0 0 4.5948-4.5948 4.5948 4.5948 0 0 0-2.1786-3.9045 4.5948 4.5948 0 0 1 1.9715 3.7706 4.5948 4.5948 0 0 1-4.5948 4.5948 4.5948 4.5948 0 0 1-2.3904-0.67114 4.5948 4.5948 0 0 0 2.5976 0.80511z"
                fill="#999" style="paint-order: fill markers;"></path>
            </g>
          </a>
          <title>Destroy Land (and anything on it!)</title>
        </g>
      </g>
    </g>
    <g transform="rotate(180, 0,0)">
      <g transform="translate(12)">
        <g transform="rotate(-180, 0,0)"> <a class="test">
            <g opacity="1" transform="scale(0.9618527719784453)">
              <circle cx="-8.0776e-10" cy="2.1588e-9" r="5.538" fill="#000" fill-opacity=".28921"
                style="paint-order: fill markers;"></circle>
              <circle cx="-8.0776e-10" cy="2.1588e-9" r="4.7411" fill="#d1d1d1" style="paint-order: fill markers;">
              </circle>
              <path
                d="m2.96-2.1c0.134-0.134 0.134-0.351 0-0.485-0.134-0.134-0.351-0.134-0.485 0l-2.05 2.05-0.371-0.371c-0.0449-0.0449-0.107-0.0706-0.171-0.0706-0.134 0-0.242 0.108-0.242 0.242v0.311l1.16 1.16h0.311c0.134 0 0.242-0.108 0.242-0.242 0-0.0642-0.0257-0.126-0.0706-0.171l-0.371-0.371 2.05-2.05zm-2.41 3.2-1.27-1.27c-0.457-0.0396-0.912 0.125-1.24 0.453l-0.0856 0.0856c-0.239 0.239-0.372 0.562-0.372 0.899 0 0.0728 0.076 0.12 0.141 0.0877l0.547-0.273c0.0535-0.0267 0.102 0.0439 0.0578 0.0845l-1.35 1.22c-0.0492 0.0449-0.0781 0.109-0.0781 0.177 0 0.131 0.106 0.236 0.236 0.236h1.85c0.415 0 0.812-0.165 1.11-0.458 0.327-0.327 0.491-0.782 0.453-1.24z"
                stroke-width=".198" />
              <path
                d="m0.049757-4.5469a4.5948 4.5948 0 0 0-4.5948 4.5948 4.5948 4.5948 0 0 0 2.1786 3.9046 4.5948 4.5948 0 0 1-1.9714-3.7706 4.5948 4.5948 0 0 1 4.5948-4.5948 4.5948 4.5948 0 0 1 2.3904 0.67114 4.5948 4.5948 0 0 0-2.5976-0.80512z"
                fill="#fff" style="paint-order: fill markers;"></path>
              <path
                d="m-0.057583 4.5765a4.5948 4.5948 0 0 0 4.5948-4.5948 4.5948 4.5948 0 0 0-2.1786-3.9045 4.5948 4.5948 0 0 1 1.9715 3.7706 4.5948 4.5948 0 0 1-4.5948 4.5948 4.5948 4.5948 0 0 1-2.3904-0.67114 4.5948 4.5948 0 0 0 2.5976 0.80511z"
                fill="#999" style="paint-order: fill markers;"></path>
            </g>
          </a>
          <title>Remove / Rebuild Features</title>
        </g>
      </g>
    </g>
    <g transform="rotate(240, 0,0)">
      <g transform="translate(12)">
        <g transform="rotate(-240, 0,0)"> <a class="test">
            <g opacity="1" transform="scale(0.9618527719784453)">
              <circle cx="-8.0776e-10" cy="2.1588e-9" r="5.538" fill="#000" fill-opacity=".28921"
                style="paint-order: fill markers;"></circle>
              <circle cx="-8.0776e-10" cy="2.1588e-9" r="4.7411" fill="#d1d1d1" style="paint-order: fill markers;">
              </circle>
              <path
                d="m-0.469-2.07c-0.255-0.255-0.669-0.255-0.924 0l-1.26 1.26c-0.255 0.255-0.255 0.669 0 0.924l1.26 1.26c0.255 0.255 0.669 0.255 0.924 0l1.26-1.26c0.255-0.255 0.255-0.669 0-0.924zm-0.68 1.72a0.218 0.218 0 1 1 0.436 0 0.218 0.218 0 1 1-0.436 0zm-0.944-0.218a0.218 0.218 0 1 1 0 0.436 0.218 0.218 0 1 1 0-0.436zm1.16 1.6a0.218 0.218 0 1 1 0-0.436 0.218 0.218 0 1 1 0 0.436zm1.16-1.6a0.218 0.218 0 1 1 0 0.436 0.218 0.218 0 1 1 0-0.436zm-1.16-0.726a0.218 0.218 0 1 1 0-0.436 0.218 0.218 0 1 1 0 0.436zm0.871 2.98c0 0.32 0.261 0.581 0.581 0.581h1.74c0.32 0 0.581-0.261 0.581-0.581v-1.74c0-0.32-0.261-0.581-0.581-0.581h-1.04c0.105 0.327 0.0281 0.699-0.231 0.958l-1.06 1.06zm1.45-1.09a0.218 0.218 0 1 1 0 0.436 0.218 0.218 0 1 1 0-0.436z"
                stroke-width=".198" />
              <path
                d="m0.049757-4.5469a4.5948 4.5948 0 0 0-4.5948 4.5948 4.5948 4.5948 0 0 0 2.1786 3.9046 4.5948 4.5948 0 0 1-1.9714-3.7706 4.5948 4.5948 0 0 1 4.5948-4.5948 4.5948 4.5948 0 0 1 2.3904 0.67114 4.5948 4.5948 0 0 0-2.5976-0.80512z"
                fill="#fff" style="paint-order: fill markers;"></path>
              <path
                d="m-0.057583 4.5765a4.5948 4.5948 0 0 0 4.5948-4.5948 4.5948 4.5948 0 0 0-2.1786-3.9045 4.5948 4.5948 0 0 1 1.9715 3.7706 4.5948 4.5948 0 0 1-4.5948 4.5948 4.5948 4.5948 0 0 1-2.3904-0.67114 4.5948 4.5948 0 0 0 2.5976 0.80511z"
                fill="#999" style="paint-order: fill markers;"></path>
            </g>
          </a>
          <title>Roll new entities</title>
        </g>
      </g>
    </g>
    <g transform="rotate(300, 0,0)">
      <g transform="translate(12)">
        <g transform="rotate(-300, 0,0)"> <a class="test">
            <g opacity="1" transform="scale(0.9618527719784453)">
              <circle cx="-8.0776e-10" cy="2.1588e-9" r="5.538" fill="#000" fill-opacity=".28921"
                style="paint-order: fill markers;"></circle>
              <circle cx="-8.0776e-10" cy="2.1588e-9" r="4.7411" fill="#d1d1d1" style="paint-order: fill markers;">
              </circle>
              <path
                d="m0.0808-0.224-1.42 1.42c-0.0523 0.0523-0.0523 0.137 0 0.188 0.0523 0.0517 0.137 0.0523 0.188 0l0.317-0.317h0.378c0.276 0 0.544-0.0801 0.773-0.228 0.0617-0.04 0.0306-0.128-0.0434-0.128-0.0284 0-0.0512-0.0228-0.0512-0.0512 0-0.0228 0.015-0.0423 0.0361-0.0489l0.45-0.135c0.0139-0.00446 0.0267-0.0117 0.0373-0.0222l0.125-0.125c0.0562-0.0562 0.0161-0.152-0.0628-0.152h-0.179c-0.0284 0-0.0512-0.0228-0.0512-0.0512 0-0.0228 0.015-0.0423 0.0361-0.0489l0.623-0.187c0.0222-0.00667 0.0411-0.0217 0.0517-0.0428 0.06-0.117 0.0912-0.247 0.0912-0.381 0-0.228-0.0906-0.446-0.252-0.608l-0.0306-0.0306c-0.161-0.161-0.379-0.251-0.607-0.251-0.228 0-0.446 0.0906-0.608 0.252l-0.577 0.577c-0.267 0.267-0.417 0.629-0.417 1.01v0.307l1.05-1.05c0.0345-0.0345 0.0912-0.0345 0.126 0 0.03 0.03 0.0339 0.0756 0.0122 0.11z"
                stroke-width=".198" />
              <path
                d="m0.0133-3.26c-1.46 1.58e-4 -2.72 0.984-3.1 2.37l0.531 0.146c0.31-1.16 1.36-1.97 2.57-1.97 0.998 1.47e-4 1.89 0.555 2.34 1.4l-0.511 0.212 1.33 1.02 0.218-1.66-0.529 0.219c-0.538-1.04-1.63-1.74-2.85-1.74z"
                stroke-linecap="round" stroke-linejoin="round" stroke-width=".525"
                style="paint-order:stroke fill markers" />
              <path
                d="m-0.0133 3.26c1.46-1.58e-4 2.72-0.984 3.1-2.37l-0.531-0.146c-0.31 1.16-1.36 1.97-2.57 1.97-0.998-1.47e-4 -1.89-0.555-2.34-1.4l0.511-0.212-1.33-1.02-0.218 1.66 0.529-0.219c0.538 1.04 1.63 1.74 2.85 1.74z"
                stroke-linecap="round" stroke-linejoin="round" stroke-width=".525"
                style="paint-order:stroke fill markers" />
              <path
                d="m0.049757-4.5469a4.5948 4.5948 0 0 0-4.5948 4.5948 4.5948 4.5948 0 0 0 2.1786 3.9046 4.5948 4.5948 0 0 1-1.9714-3.7706 4.5948 4.5948 0 0 1 4.5948-4.5948 4.5948 4.5948 0 0 1 2.3904 0.67114 4.5948 4.5948 0 0 0-2.5976-0.80512z"
                fill="#fff" style="paint-order: fill markers;"></path>
              <path
                d="m-0.057583 4.5765a4.5948 4.5948 0 0 0 4.5948-4.5948 4.5948 4.5948 0 0 0-2.1786-3.9045 4.5948 4.5948 0 0 1 1.9715 3.7706 4.5948 4.5948 0 0 1-4.5948 4.5948 4.5948 4.5948 0 0 1-2.3904-0.67114 4.5948 4.5948 0 0 0 2.5976 0.80511z"
                fill="#999" style="paint-order: fill markers;"></path>
            </g>
          </a>
          <title>Rearrange Realm Hex Map</title>
        </g>
      </g>
    </g>
  </g>
</svg>
